<svg xmlns="http://www.w3.org/2000/svg" width="853.5283203125" height="774.974853515625" viewBox="-314.2908935546875 -314.6581115722656 853.5283203125 774.974853515625"><title>Neo4j Graph Visualization</title><desc>Created using Neo4j (http://www.neo4j.com/)</desc><g class="layer relationships"><g class="relationship" transform="translate(153.55054324415508 310.54204644449663) rotate(253.3873308162332)"><path class="outline" fill="#A5ABB6" stroke="none" d="M 24.018736134675446,-6.953439040707552 L 24.277555179777966,-5.987513214418485 A 127.85499636940136 127.85499636940136 0 0 1 29.519392824812606,-7.274113750263453 L 29.301572080862822,-8.250102542978397 A 128.85499636940136 128.85499636940136 0 0 0 24.018736134675446,-6.953439040707552 Z M 81.77599863618536,-9.01140748462555 L 81.5865831220634,-8.029510462015793 A 127.85499636940136 127.85499636940136 0 0 1 86.86353900851988,-6.895517777678217 L 86.17147354543206,-3.9764348061268713 L 93.79007685265432,-5.767212192398524 L 87.78629295930364,-10.787628406413345 L 87.09422749621582,-7.868545434862 A 128.85499636940136 128.85499636940136 0 0 0 81.77599863618536,-9.01140748462555"/><text text-anchor="middle" pointer-events="none" font-size="8px" fill="#000000" x="55.50687033383775" y="-7.8305602788128965" transform="rotate(180 55.50687033383775 -10.830560278812897)" font-family="sans-serif">educated_at</text></g><g class="relationship" transform="translate(153.55054324415508 310.54204644449663) rotate(297.7145618859464)"><path class="outline" fill="#A5ABB6" stroke="none" d="M 25 0.5 L 27.194238320930452 0.5 L 27.194238320930452 -0.5 L 25 -0.5 Z M 86.96767582093045 0.5 L 89.1619141418609 0.5 L 89.1619141418609 3.5 L 96.1619141418609 0 L 89.1619141418609 -3.5 L 89.1619141418609 -0.5 L 86.96767582093045 -0.5 Z"/><text text-anchor="middle" pointer-events="none" font-size="8px" fill="#000000" x="57.08095707093045" y="3" font-family="sans-serif">member_of_…</text></g><g class="relationship" transform="translate(153.55054324415508 310.54204644449663) rotate(253.3873308162332)"><path class="outline" fill="#A5ABB6" stroke="none" d="M 24.018736134675446,6.953439040707552 L 24.277555179777966,5.987513214418485 A 127.85499636940136 127.85499636940136 0 0 0 34.62418394373789,8.304727652001617 L 34.44628961067451,9.288777247430602 A 128.85499636940136 128.85499636940136 0 0 1 24.018736134675446,6.953439040707552 Z M 76.603314347198,9.90039615141653 L 76.45404228451163,8.911599988751362 A 127.85499636940136 127.85499636940136 0 0 0 86.86353900851988,6.895517777678217 L 86.17147354543206,3.9764348061268713 L 93.79007685265432,5.767212192398524 L 87.78629295930364,10.787628406413345 L 87.09422749621582,7.868545434862 A 128.85499636940136 128.85499636940136 0 0 1 76.603314347198,9.90039615141653"/><text text-anchor="middle" pointer-events="none" font-size="8px" fill="#000000" x="55.50687033383781" y="13.830560278812897" transform="rotate(180 55.50687033383781 10.830560278812897)" font-family="sans-serif">employer</text></g><g class="relationship" transform="translate(153.55054324415508 310.54204644449663) rotate(375.16045785979617)"><path class="outline" fill="#A5ABB6" stroke="none" d="M 25 0.5 L 30.831867104809717 0.5 L 30.831867104809717 -0.5 L 25 -0.5 Z M 87.12092960480972 0.5 L 92.95279670961943 0.5 L 92.95279670961943 3.5 L 99.95279670961943 0 L 92.95279670961943 -3.5 L 92.95279670961943 -0.5 L 87.12092960480972 -0.5 Z"/><text text-anchor="middle" pointer-events="none" font-size="8px" fill="#000000" x="58.97639835480972" y="3" font-family="sans-serif">date_of_birth</text></g><g class="relationship" transform="translate(153.55054324415508 310.54204644449663) rotate(338.2876020414851)"><path class="outline" fill="#A5ABB6" stroke="none" d="M 25 0.5 L 26.198110136202544 0.5 L 26.198110136202544 -0.5 L 25 -0.5 Z M 91.24498513620254 0.5 L 92.44309527240509 0.5 L 92.44309527240509 3.5 L 99.44309527240509 0 L 92.44309527240509 -3.5 L 92.44309527240509 -0.5 L 91.24498513620254 -0.5 Z"/><text text-anchor="middle" pointer-events="none" font-size="8px" fill="#000000" x="58.721547636202544" y="3" font-family="sans-serif">award_received</text></g><g class="relationship" transform="translate(153.55054324415508 310.54204644449663) rotate(457.3220403745167)"><path class="outline" fill="#A5ABB6" stroke="none" d="M 25 0.5 L 26.43461429804674 0.5 L 26.43461429804674 -0.5 L 25 -0.5 Z M 88.33305179804674 0.5 L 89.76766609609348 0.5 L 89.76766609609348 3.5 L 96.76766609609348 0 L 89.76766609609348 -3.5 L 89.76766609609348 -0.5 L 88.33305179804674 -0.5 Z"/><text text-anchor="middle" pointer-events="none" font-size="8px" fill="#000000" x="57.38383304804674" y="3" transform="rotate(180 57.38383304804674 0)" font-family="sans-serif">award_receiv…</text></g><g class="relationship" transform="translate(153.55054324415508 310.54204644449663) rotate(414.6310815137492)"><path class="outline" fill="#A5ABB6" stroke="none" d="M 25 0.5 L 25.470110916260822 0.5 L 25.470110916260822 -0.5 L 25 -0.5 Z M 90.51698591626082 0.5 L 90.98709683252164 0.5 L 90.98709683252164 3.5 L 97.98709683252164 0 L 90.98709683252164 -3.5 L 90.98709683252164 -0.5 L 90.51698591626082 -0.5 Z"/><text text-anchor="middle" pointer-events="none" font-size="8px" fill="#000000" x="57.99354841626082" y="3" font-family="sans-serif">award_received</text></g><g class="relationship" transform="translate(153.55054324415508 310.54204644449663) rotate(500.08544623168814)"><path class="outline" fill="#A5ABB6" stroke="none" d="M 25 0.5 L 32.396995427114774 0.5 L 32.396995427114774 -0.5 L 25 -0.5 Z M 81.09230792711477 0.5 L 88.48930335422955 0.5 L 88.48930335422955 3.5 L 95.48930335422955 0 L 88.48930335422955 -3.5 L 88.48930335422955 -0.5 L 81.09230792711477 -0.5 Z"/><text text-anchor="middle" pointer-events="none" font-size="8px" fill="#000000" x="56.744651677114774" y="3" transform="rotate(180 56.744651677114774 0)" font-family="sans-serif">occupation</text></g><g class="relationship" transform="translate(33.72442491208851 277.52340634134947) rotate(375.4057900620238)"><path class="outline" fill="#A5ABB6" stroke="none" d="M 25 0.5 L 31.585509373147353 0.5 L 31.585509373147353 -0.5 L 25 -0.5 Z M 85.70660312314735 0.5 L 92.2921124962947 0.5 L 92.2921124962947 3.5 L 99.2921124962947 0 L 92.2921124962947 -3.5 L 92.2921124962947 -0.5 L 85.70660312314735 -0.5 Z"/><text text-anchor="middle" pointer-events="none" font-size="8px" fill="#000000" x="58.64605624814735" y="3" font-family="sans-serif">designed_by</text></g><g class="relationship" transform="translate(431.1672150538768 67.50972330103791) rotate(261.7497654775481)"><path class="outline" fill="#A5ABB6" stroke="none" d="M 25 0.5 L 33.38820853653362 0.5 L 33.38820853653362 -0.5 L 25 -0.5 Z M 68.61477103653363 0.5 L 77.00297957306724 0.5 L 77.00297957306724 3.5 L 84.00297957306724 0 L 77.00297957306724 -3.5 L 77.00297957306724 -0.5 L 68.61477103653363 -0.5 Z"/><text text-anchor="middle" pointer-events="none" font-size="8px" fill="#000000" x="51.00148978653362" y="3" transform="rotate(180 51.00148978653362 0)" font-family="sans-serif">country</text></g><g class="relationship" transform="translate(431.1672150538768 67.50972330103791) rotate(320.592263438228)"><path class="outline" fill="#A5ABB6" stroke="none" d="M 25 0.5 L 25.478890217539472 0.5 L 25.478890217539472 -0.5 L 25 -0.5 Z M 69.85779646753947 0.5 L 70.33668668507894 0.5 L 70.33668668507894 3.5 L 77.33668668507894 0 L 70.33668668507894 -3.5 L 70.33668668507894 -0.5 L 69.85779646753947 -0.5 Z"/><text text-anchor="middle" pointer-events="none" font-size="8px" fill="#000000" x="47.66834334253947" y="3" font-family="sans-serif">located_…</text></g><g class="relationship" transform="translate(510.2374369959738 2.542828318227296) rotate(204.37230899308156)"><path class="outline" fill="#A5ABB6" stroke="none" d="M 24.018736134675446,6.953439040707552 L 24.277555179777966,5.987513214418485 A 99.65554953993997 99.65554953993997 0 0 0 31.032447945671578,7.547828126732824 L 30.841411305032004,8.529411033029149 A 100.65554953993997 100.65554953993997 0 0 1 24.018736134675446,6.953439040707552 Z M 66.05692373286605,9.105548232862517 L 65.89809876538972,8.118241477235799 A 99.65554953993997 99.65554953993997 0 0 0 72.70041732089416,6.779726937250758 L 72.01916751369846,3.8581009002303084 L 79.63108637514117,5.677081726630858 L 73.6087503971551,10.67522831994469 L 72.92750058995941,7.75360228292424 A 100.65554953993997 100.65554953993997 0 0 1 66.05692373286605,9.105548232862517"/><text text-anchor="middle" pointer-events="none" font-size="8px" fill="#000000" x="48.43195133793259" y="12.869792583263148" transform="rotate(180 48.43195133793259 9.869792583263148)" font-family="sans-serif">country</text></g><g class="relationship" transform="translate(415.525650157664 -40.365162577947274) rotate(384.37230899308156)"><path class="outline" fill="#A5ABB6" stroke="none" d="M 24.018736134675446,6.953439040707552 L 24.277555179777966,5.987513214418485 A 99.65554953993997 99.65554953993997 0 0 0 24.700353817737735,6.0998077465654745 L 24.44577737267015,7.066860399535699 A 100.65554953993997 100.65554953993997 0 0 1 24.018736134675446,6.953439040707552 Z M 72.49697766736503,7.8529936140714796 L 72.27417158842555,6.878130828245901 A 99.65554953993997 99.65554953993997 0 0 0 72.70041732089416,6.779726937250758 L 72.01916751369846,3.8581009002303084 L 79.63108637514117,5.677081726630858 L 73.6087503971551,10.67522831994469 L 72.92750058995941,7.75360228292424 A 100.65554953993997 100.65554953993997 0 0 1 72.49697766736503,7.8529936140714796"/><text text-anchor="middle" pointer-events="none" font-size="8px" fill="#000000" x="48.43195133793259" y="12.869792583263148" font-family="sans-serif">contains_…</text></g><g class="relationship" transform="translate(245.1220777884389 -210.81680542152765) rotate(522.5258198984577)"><path class="outline" fill="#A5ABB6" stroke="none" d="M 25 0.5 L 26.386864861647645 0.5 L 26.386864861647645 -0.5 L 25 -0.5 Z M 79.03139611164764 0.5 L 80.41826097329529 0.5 L 80.41826097329529 3.5 L 87.41826097329529 0 L 80.41826097329529 -3.5 L 80.41826097329529 -0.5 L 79.03139611164764 -0.5 Z"/><text text-anchor="middle" pointer-events="none" font-size="8px" fill="#000000" x="52.709130486647645" y="3" transform="rotate(180 52.709130486647645 0)" font-family="sans-serif">educated_at</text></g><g class="relationship" transform="translate(130.04625022297557 -285.6581231116504) rotate(445.86797464512244)"><path class="outline" fill="#A5ABB6" stroke="none" d="M 25 0.5 L 25.06541975795647 0.5 L 25.06541975795647 -0.5 L 25 -0.5 Z M 76.81541975795648 0.5 L 76.88083951591294 0.5 L 76.88083951591294 3.5 L 83.88083951591294 0 L 76.88083951591294 -3.5 L 76.88083951591294 -0.5 L 76.81541975795648 -0.5 Z"/><text text-anchor="middle" pointer-events="none" font-size="8px" fill="#000000" x="50.94041975795647" y="3" font-family="sans-serif">educated_…</text></g><g class="relationship" transform="translate(63.44947570733214 -94.13362326298112) rotate(311.913901125807)"><path class="outline" fill="#A5ABB6" stroke="none" d="M 25 0.5 L 25.896833060374618 0.5 L 25.896833060374618 -0.5 L 25 -0.5 Z M 78.54136431037462 0.5 L 79.43819737074924 0.5 L 79.43819737074924 3.5 L 86.43819737074924 0 L 79.43819737074924 -3.5 L 79.43819737074924 -0.5 L 78.54136431037462 -0.5 Z"/><text text-anchor="middle" pointer-events="none" font-size="8px" fill="#000000" x="52.21909868537462" y="3" font-family="sans-serif">educated_at</text></g><g class="relationship" transform="translate(34.07519873201226 -219.59462723748976) rotate(382.27925468575074)"><path class="outline" fill="#A5ABB6" stroke="none" d="M 25 0.5 L 26.273690543587243 0.5 L 26.273690543587243 -0.5 L 25 -0.5 Z M 78.91822179358724 0.5 L 80.19191233717449 0.5 L 80.19191233717449 3.5 L 87.19191233717449 0 L 80.19191233717449 -3.5 L 80.19191233717449 -0.5 L 78.91822179358724 -0.5 Z"/><text text-anchor="middle" pointer-events="none" font-size="8px" fill="#000000" x="52.59595616858724" y="3" font-family="sans-serif">educated_at</text></g><g class="relationship" transform="translate(202.42971311898933 -88.37057906423158) rotate(233.95723114272374)"><path class="outline" fill="#A5ABB6" stroke="none" d="M 25 0.5 L 30.249271380201357 0.5 L 30.249271380201357 -0.5 L 25 -0.5 Z M 72.43677138020135 0.5 L 77.68604276040271 0.5 L 77.68604276040271 3.5 L 84.68604276040271 0 L 77.68604276040271 -3.5 L 77.68604276040271 -0.5 L 72.43677138020135 -0.5 Z"/><text text-anchor="middle" pointer-events="none" font-size="8px" fill="#000000" x="51.34302138020136" y="3" transform="rotate(180 51.34302138020136 0)" font-family="sans-serif">employer</text></g><g class="relationship" transform="translate(-183.63700362406135 -155.335116024378) rotate(443.29976023576666)"><path class="outline" fill="#A5ABB6" stroke="none" d="M 24.018736134675446,-6.953439040707552 L 24.277555179777966,-5.987513214418485 A 103.45203473004297 103.45203473004297 0 0 1 24.538330313463756,-6.057023258241173 L 24.282032003060813,-7.023620990539669 A 104.45203473004297 104.45203473004297 0 0 0 24.018736134675446,-6.953439040707552 Z M 74.5628280356369,-7.8323806956554165 L 74.3377494522098,-6.858040082069763 A 103.45203473004297 103.45203473004297 0 0 1 74.60062522449597,-6.796952891219088 L 73.91776635380997,-3.875702514629393 L 81.53068591498625,-5.690490589050028 L 75.51110371874397,-10.691953393338682 L 74.82824484805796,-7.770703016748986 A 104.45203473004297 104.45203473004297 0 0 0 74.5628280356369,-7.8323806956554165"/><text text-anchor="middle" pointer-events="none" font-size="8px" fill="#000000" x="49.38107406455078" y="-6.999111044040532" font-family="sans-serif">field_of_w…</text></g><g class="relationship" transform="translate(-171.28411475544502 -50.1837823122633) rotate(511.5133627918658)"><path class="outline" fill="#A5ABB6" stroke="none" d="M 24.018736134675446,-6.953439040707552 L 24.277555179777966,-5.987513214418485 A 103.56320087618495 103.56320087618495 0 0 1 25.36290770296786,-6.272039981385234 L 25.114568756143562,-7.240713180916529 A 104.56320087618495 104.56320087618495 0 0 0 24.018736134675446,-6.953439040707552 Z M 73.77943415939122,-8.023094889287151 L 73.56236209167635,-7.0469393087478664 A 103.56320087618495 103.56320087618495 0 0 1 74.65629997332337,-6.797448844375276 L 73.97339477623906,-3.87620929723176 L 81.58634311617229,-5.690876642369163 L 75.56684023610244,-10.692434907233297 L 74.88393503901813,-7.771195360089782 A 104.56320087618495 104.56320087618495 0 0 0 73.77943415939122,-8.023094889287151"/><text text-anchor="middle" pointer-events="none" font-size="8px" fill="#000000" x="49.40888315293059" y="-7.002897828075234" transform="rotate(180 49.40888315293059 -10.002897828075234)" font-family="sans-serif">discovere…</text></g><g class="relationship" transform="translate(-171.28411475544502 -50.1837823122633) rotate(263.29976023576666)"><path class="outline" fill="#A5ABB6" stroke="none" d="M 24.018736134675446,-6.953439040707552 L 24.277555179777966,-5.987513214418485 A 103.45203473004297 103.45203473004297 0 0 1 25.335776828506194,-6.26507411280754 L 25.087186887659474,-7.233682930292602 A 104.45203473004297 104.45203473004297 0 0 0 24.018736134675446,-6.953439040707552 Z M 73.75133378009178,-8.016439055810878 L 73.53402425791506,-7.040336309389502 A 103.45203473004297 103.45203473004297 0 0 1 74.60062522449597,-6.796952891219088 L 73.91776635380997,-3.875702514629393 L 81.53068591498625,-5.690490589050028 L 75.51110371874397,-10.691953393338682 L 74.82824484805796,-7.770703016748986 A 104.45203473004297 104.45203473004297 0 0 0 73.75133378009178,-8.016439055810878"/><text text-anchor="middle" pointer-events="none" font-size="8px" fill="#000000" x="49.38107406455078" y="-6.999111044040532" transform="rotate(180 49.38107406455078 -9.999111044040532)" font-family="sans-serif">discovere…</text></g><g class="relationship" transform="translate(-264.38900269222256 0.3399350426015327) rotate(331.5133627918658)"><path class="outline" fill="#A5ABB6" stroke="none" d="M 24.018736134675446,-6.953439040707552 L 24.277555179777966,-5.987513214418485 A 103.56320087618495 103.56320087618495 0 0 1 24.5654022981811,-6.064198087114889 L 24.30936268743333,-7.030864377893721 A 104.56320087618495 104.56320087618495 0 0 0 24.018736134675446,-6.953439040707552 Z M 74.59096980221635,-7.839238332041333 L 74.36613653710101,-6.864841080968873 A 103.56320087618495 103.56320087618495 0 0 1 74.65629997332337,-6.797448844375276 L 73.97339477623906,-3.87620929723176 L 81.58634311617229,-5.690876642369163 L 75.56684023610244,-10.692434907233297 L 74.88393503901813,-7.771195360089782 A 104.56320087618495 104.56320087618495 0 0 0 74.59096980221635,-7.839238332041333"/><text text-anchor="middle" pointer-events="none" font-size="8px" fill="#000000" x="49.40888315293059" y="-7.002897828075234" font-family="sans-serif">field_of_w…</text></g><g class="relationship" transform="translate(-77.83091457444547 243.51706967356685) rotate(376.9532276904655)"><path class="outline" fill="#A5ABB6" stroke="none" d="M 25 0.5 L 25.333199967834396 0.5 L 25.333199967834396 -0.5 L 25 -0.5 Z M 84.29023121783439 0.5 L 84.62343118566879 0.5 L 84.62343118566879 3.5 L 91.62343118566879 0 L 84.62343118566879 -3.5 L 84.62343118566879 -0.5 L 84.29023121783439 -0.5 Z"/><text text-anchor="middle" pointer-events="none" font-size="8px" fill="#000000" x="54.811715592834396" y="3" font-family="sans-serif">influenced_by</text></g><g class="relationship" transform="translate(-77.83091457444547 243.51706967356685) rotate(256.8304753140443)"><path class="outline" fill="#A5ABB6" stroke="none" d="M 24.018736134675446,-6.953439040707552 L 24.277555179777966,-5.987513214418485 A 110.13379306497356 110.13379306497356 0 0 1 30.391858476122596,-7.440205924944067 L 30.188556481020683,-8.419322005287754 A 111.13379306497356 111.13379306497356 0 0 0 24.018736134675446,-6.953439040707552 Z M 71.96623428686401,-9.071938624342962 L 71.79361392159603,-8.086950193195293 A 110.13379306497356 110.13379306497356 0 0 1 77.95030838182382,-6.825944945662402 L 77.26474141785111,-3.9053289253835906 L 84.87934025646983,-5.713058033105888 L 78.86439766712077,-10.720099639367485 L 78.17883070314807,-7.799483619088673 A 111.13379306497356 111.13379306497356 0 0 0 71.96623428686401,-9.071938624342962"/><text text-anchor="middle" pointer-events="none" font-size="8px" fill="#000000" x="51.054258778425094" y="-7.226735181896657" transform="rotate(180 51.054258778425094 -10.226735181896657)" font-family="sans-serif">inception</text></g><g class="relationship" transform="translate(-77.83091457444547 243.51706967356685) rotate(256.8304753140443)"><path class="outline" fill="#A5ABB6" stroke="none" d="M 24.018736134675446,6.953439040707552 L 24.277555179777966,5.987513214418485 A 110.13379306497356 110.13379306497356 0 0 0 26.17072743560216,6.476816331887008 L 25.929098139468945,7.447184964546864 A 111.13379306497356 111.13379306497356 0 0 1 24.018736134675446,6.953439040707552 Z M 76.2539787843283,8.233318976433253 L 76.04277659458361,7.255876581687119 A 110.13379306497356 110.13379306497356 0 0 0 77.95030838182382,6.825944945662402 L 77.26474141785111,3.9053289253835906 L 84.87934025646983,5.713058033105888 L 78.86439766712077,10.720099639367485 L 78.17883070314807,7.799483619088673 A 111.13379306497356 111.13379306497356 0 0 1 76.2539787843283,8.233318976433253"/><text text-anchor="middle" pointer-events="none" font-size="8px" fill="#000000" x="51.05425877842511" y="13.226735181896657" transform="rotate(180 51.05425877842511 10.226735181896657)" font-family="sans-serif">publicatio…</text></g><g class="relationship" transform="translate(-285.29089598033084 236.37743816454181) rotate(427.5241808065022)"><path class="outline" fill="#A5ABB6" stroke="none" d="M 25 0.5 L 29.705638611409896 0.5 L 29.705638611409896 -0.5 L 25 -0.5 Z M 71.5493886114099 0.5 L 76.25502722281979 0.5 L 76.25502722281979 3.5 L 83.25502722281979 0 L 76.25502722281979 -3.5 L 76.25502722281979 -0.5 L 71.5493886114099 -0.5 Z"/><text text-anchor="middle" pointer-events="none" font-size="8px" fill="#000000" x="50.627513611409896" y="3" font-family="sans-serif">inception</text></g></g><g class="layer nodes"><g class="node" transform="translate(153.55054324415508,310.54204644449663)"><circle class="outline" cx="0" cy="0" r="25" fill="#C990C0" stroke="#b261a5" stroke-width="2px"/><text text-anchor="middle" pointer-events="none" font-family="sans-serif" dy="1.5625" font-size="25" fill="#FFFFFF"/><text text-anchor="middle" pointer-events="none" font-family="sans-serif" dy="1.5625" font-size="25" fill="#FFFFFF"/><text text-anchor="middle" pointer-events="none" x="0" y="0" font-size="10px" fill="#FFFFFF" font-family="sans-serif"> John</text><text text-anchor="middle" pointer-events="none" x="0" y="10" font-size="10px" fill="#FFFFFF" font-family="sans-serif"> McCart…</text></g><g class="node" transform="translate(61.13498349594067,387.8533427679432)"><circle class="outline" cx="0" cy="0" r="25" fill="#F79767" stroke="#f36924" stroke-width="2px"/><text text-anchor="middle" pointer-events="none" font-family="sans-serif" dy="1.5625" font-size="25" fill="#FFFFFF"/><text text-anchor="middle" pointer-events="none" x="0" y="5" font-size="10px" fill="#FFFFFF" font-family="sans-serif"> Comput…</text></g><g class="node" transform="translate(224.74025919722453,410.8308809666574)"><circle class="outline" cx="0" cy="0" r="25" fill="#57C7E3" stroke="#23b3d7" stroke-width="2px"/><text text-anchor="middle" pointer-events="none" font-family="sans-serif" dy="1.5625" font-size="25" fill="#2A2C34"/><text text-anchor="middle" pointer-events="none" font-family="sans-serif" dy="1.5625" font-size="25" fill="#2A2C34"/><text text-anchor="middle" pointer-events="none" x="0" y="0" font-size="10px" fill="#2A2C34" font-family="sans-serif"> Turing</text><text text-anchor="middle" pointer-events="none" x="0" y="10" font-size="10px" fill="#2A2C34" font-family="sans-serif"> Award</text></g><g class="node" transform="translate(138.03172199846094,431.3167569332157)"><circle class="outline" cx="0" cy="0" r="25" fill="#57C7E3" stroke="#23b3d7" stroke-width="2px"/><text text-anchor="middle" pointer-events="none" font-family="sans-serif" dy="1.5625" font-size="25" fill="#2A2C34"/><text text-anchor="middle" pointer-events="none" font-family="sans-serif" dy="1.5625" font-size="25" fill="#2A2C34"/><text text-anchor="middle" pointer-events="none" font-family="sans-serif" dy="1.5625" font-size="25" fill="#2A2C34"/><text text-anchor="middle" pointer-events="none" x="0" y="-5" font-size="10px" fill="#2A2C34" font-family="sans-serif"> United</text><text text-anchor="middle" pointer-events="none" x="0" y="5" font-size="10px" fill="#2A2C34" font-family="sans-serif"> States</text><text text-anchor="middle" pointer-events="none" x="0" y="15" font-size="10px" fill="#2A2C34" font-family="sans-serif"> Natio…</text></g><g class="node" transform="translate(269.1647172485156,264.50459722903366)"><circle class="outline" cx="0" cy="0" r="25" fill="#57C7E3" stroke="#23b3d7" stroke-width="2px"/><text text-anchor="middle" pointer-events="none" font-family="sans-serif" dy="1.5625" font-size="25" fill="#2A2C34"/><text text-anchor="middle" pointer-events="none" font-family="sans-serif" dy="1.5625" font-size="25" fill="#2A2C34"/><text text-anchor="middle" pointer-events="none" x="0" y="0" font-size="10px" fill="#2A2C34" font-family="sans-serif"> Kyoto</text><text text-anchor="middle" pointer-events="none" x="0" y="10" font-size="10px" fill="#2A2C34" font-family="sans-serif"> Prize</text></g><g class="node" transform="translate(274.1546342628162,343.2200915989728)"><circle class="outline" cx="0" cy="0" r="25" fill="#F16667" stroke="#eb2728" stroke-width="2px"/><text text-anchor="middle" pointer-events="none" font-family="sans-serif" dy="1.5625" font-size="25" fill="#FFFFFF"/><text text-anchor="middle" pointer-events="none" x="0" y="5" font-size="10px" fill="#FFFFFF" font-family="sans-serif"> Septem…</text></g><g class="node" transform="translate(119.78121394277753,197.3565035715615)"><circle class="outline" cx="0" cy="0" r="25" fill="#D9C8AE" stroke="#c0a378" stroke-width="2px"/><text text-anchor="middle" pointer-events="none" font-family="sans-serif" dy="1.5625" font-size="25" fill="#2A2C34"/><text text-anchor="middle" pointer-events="none" font-family="sans-serif" dy="1.5625" font-size="25" fill="#2A2C34"/><text text-anchor="middle" pointer-events="none" x="0" y="0" font-size="10px" fill="#2A2C34" font-family="sans-serif"> Stanford</text><text text-anchor="middle" pointer-events="none" x="0" y="10" font-size="10px" fill="#2A2C34" font-family="sans-serif"> Univers…</text></g><g class="node" transform="translate(33.72442491208851,277.52340634134947)"><circle class="outline" cx="0" cy="0" r="25" fill="#8DCC93" stroke="#5db665" stroke-width="2px"/><text text-anchor="middle" pointer-events="none" font-family="sans-serif" dy="1.5625" font-size="25" fill="#2A2C34"/><text text-anchor="middle" pointer-events="none" x="0" y="5" font-size="10px" fill="#2A2C34" font-family="sans-serif"> ALGOL</text></g><g class="node" transform="translate(431.1672150538768,67.50972330103791)"><circle class="outline" cx="0" cy="0" r="25" fill="#8DCC93" stroke="#5db665" stroke-width="2px"/><text text-anchor="middle" pointer-events="none" font-family="sans-serif" dy="1.5625" font-size="25" fill="#2A2C34"/><text text-anchor="middle" pointer-events="none" x="0" y="5" font-size="10px" fill="#2A2C34" font-family="sans-serif"> Cromane</text></g><g class="node" transform="translate(510.2374369959738,2.542828318227296)"><circle class="outline" cx="0" cy="0" r="25" fill="#8DCC93" stroke="#5db665" stroke-width="2px"/><text text-anchor="middle" pointer-events="none" font-family="sans-serif" dy="1.5625" font-size="25" fill="#2A2C34"/><text text-anchor="middle" pointer-events="none" font-family="sans-serif" dy="1.5625" font-size="25" fill="#2A2C34"/><text text-anchor="middle" pointer-events="none" x="0" y="0" font-size="10px" fill="#2A2C34" font-family="sans-serif"> County</text><text text-anchor="middle" pointer-events="none" x="0" y="10" font-size="10px" fill="#2A2C34" font-family="sans-serif"> Kerry</text></g><g class="node" transform="translate(415.525650157664,-40.365162577947274)"><circle class="outline" cx="0" cy="0" r="25" fill="#8DCC93" stroke="#5db665" stroke-width="2px"/><text text-anchor="middle" pointer-events="none" font-family="sans-serif" dy="1.5625" font-size="25" fill="#2A2C34"/><text text-anchor="middle" pointer-events="none" x="0" y="5" font-size="10px" fill="#2A2C34" font-family="sans-serif"> Ireland</text></g><g class="node" transform="translate(209.89895795671987,203.28037762519995)"><circle class="outline" cx="0" cy="0" r="25" fill="#F79767" stroke="#f36924" stroke-width="2px"/><text text-anchor="middle" pointer-events="none" font-family="sans-serif" dy="1.5625" font-size="25" fill="#FFFFFF"/><text text-anchor="middle" pointer-events="none" x="0" y="5" font-size="10px" fill="#FFFFFF" font-family="sans-serif"> Republi…</text></g><g class="node" transform="translate(245.1220777884389,-210.81680542152765)"><circle class="outline" cx="0" cy="0" r="25" fill="#C990C0" stroke="#b261a5" stroke-width="2px"/><text text-anchor="middle" pointer-events="none" font-family="sans-serif" dy="1.5625" font-size="25" fill="#FFFFFF"/><text text-anchor="middle" pointer-events="none" font-family="sans-serif" dy="1.5625" font-size="25" fill="#FFFFFF"/><text text-anchor="middle" pointer-events="none" x="0" y="0" font-size="10px" fill="#FFFFFF" font-family="sans-serif"> Alan</text><text text-anchor="middle" pointer-events="none" x="0" y="10" font-size="10px" fill="#FFFFFF" font-family="sans-serif"> Turing</text></g><g class="node" transform="translate(137.89165373043141,-177.0603015059884)"><circle class="outline" cx="0" cy="0" r="25" fill="#D9C8AE" stroke="#c0a378" stroke-width="2px"/><text text-anchor="middle" pointer-events="none" font-family="sans-serif" dy="1.5625" font-size="25" fill="#2A2C34"/><text text-anchor="middle" pointer-events="none" x="0" y="5" font-size="10px" fill="#2A2C34" font-family="sans-serif"> Princeton</text></g><g class="node" transform="translate(130.04625022297557,-285.6581231116504)"><circle class="outline" cx="0" cy="0" r="25" fill="#C990C0" stroke="#b261a5" stroke-width="2px"/><text text-anchor="middle" pointer-events="none" font-family="sans-serif" dy="1.5625" font-size="25" fill="#FFFFFF"/><text text-anchor="middle" pointer-events="none" font-family="sans-serif" dy="1.5625" font-size="25" fill="#FFFFFF"/><text text-anchor="middle" pointer-events="none" x="0" y="0" font-size="10px" fill="#FFFFFF" font-family="sans-serif"> Marvin</text><text text-anchor="middle" pointer-events="none" x="0" y="10" font-size="10px" fill="#FFFFFF" font-family="sans-serif"> Minsky</text></g><g class="node" transform="translate(63.44947570733214,-94.13362326298112)"><circle class="outline" cx="0" cy="0" r="25" fill="#C990C0" stroke="#b261a5" stroke-width="2px"/><text text-anchor="middle" pointer-events="none" font-family="sans-serif" dy="1.5625" font-size="25" fill="#FFFFFF"/><text text-anchor="middle" pointer-events="none" font-family="sans-serif" dy="1.5625" font-size="25" fill="#FFFFFF"/><text text-anchor="middle" pointer-events="none" x="0" y="0" font-size="10px" fill="#FFFFFF" font-family="sans-serif"> Allen</text><text text-anchor="middle" pointer-events="none" x="0" y="10" font-size="10px" fill="#FFFFFF" font-family="sans-serif"> Newell</text></g><g class="node" transform="translate(34.07519873201226,-219.59462723748976)"><circle class="outline" cx="0" cy="0" r="25" fill="#C990C0" stroke="#b261a5" stroke-width="2px"/><text text-anchor="middle" pointer-events="none" font-family="sans-serif" dy="1.5625" font-size="25" fill="#FFFFFF"/><text text-anchor="middle" pointer-events="none" font-family="sans-serif" dy="1.5625" font-size="25" fill="#FFFFFF"/><text text-anchor="middle" pointer-events="none" x="0" y="0" font-size="10px" fill="#FFFFFF" font-family="sans-serif"> Herbert</text><text text-anchor="middle" pointer-events="none" x="0" y="10" font-size="10px" fill="#FFFFFF" font-family="sans-serif"> A. Simon</text></g><g class="node" transform="translate(202.42971311898933,-88.37057906423158)"><circle class="outline" cx="0" cy="0" r="25" fill="#C990C0" stroke="#b261a5" stroke-width="2px"/><text text-anchor="middle" pointer-events="none" font-family="sans-serif" dy="1.5625" font-size="25" fill="#FFFFFF"/><text text-anchor="middle" pointer-events="none" font-family="sans-serif" dy="1.5625" font-size="25" fill="#FFFFFF"/><text text-anchor="middle" pointer-events="none" font-family="sans-serif" dy="1.5625" font-size="25" fill="#FFFFFF"/><text text-anchor="middle" pointer-events="none" x="0" y="-5" font-size="10px" fill="#FFFFFF" font-family="sans-serif"> Donald</text><text text-anchor="middle" pointer-events="none" x="0" y="5" font-size="10px" fill="#FFFFFF" font-family="sans-serif"> C.</text><text text-anchor="middle" pointer-events="none" x="0" y="15" font-size="10px" fill="#FFFFFF" font-family="sans-serif"> Spenc…</text></g><g class="node" transform="translate(-183.63700362406135,-155.335116024378)"><circle class="outline" cx="0" cy="0" r="25" fill="#C990C0" stroke="#b261a5" stroke-width="2px"/><text text-anchor="middle" pointer-events="none" font-family="sans-serif" dy="1.5625" font-size="25" fill="#FFFFFF"/><text text-anchor="middle" pointer-events="none" x="0" y="5" font-size="10px" fill="#FFFFFF" font-family="sans-serif"> Nathani…</text></g><g class="node" transform="translate(-171.28411475544502,-50.1837823122633)"><circle class="outline" cx="0" cy="0" r="25" fill="#ECB5C9" stroke="#da7298" stroke-width="2px"/><text text-anchor="middle" pointer-events="none" font-family="sans-serif" dy="1.5625" font-size="25" fill="#2A2C34"/><text text-anchor="middle" pointer-events="none" font-family="sans-serif" dy="1.5625" font-size="25" fill="#2A2C34"/><text text-anchor="middle" pointer-events="none" x="0" y="0" font-size="10px" fill="#2A2C34" font-family="sans-serif"> Artificial</text><text text-anchor="middle" pointer-events="none" x="0" y="10" font-size="10px" fill="#2A2C34" font-family="sans-serif"> intellig…</text></g><g class="node" transform="translate(-264.38900269222256,0.3399350426015327)"><circle class="outline" cx="0" cy="0" r="25" fill="#C990C0" stroke="#b261a5" stroke-width="2px"/><text text-anchor="middle" pointer-events="none" font-family="sans-serif" dy="1.5625" font-size="25" fill="#FFFFFF"/><text text-anchor="middle" pointer-events="none" font-family="sans-serif" dy="1.5625" font-size="25" fill="#FFFFFF"/><text text-anchor="middle" pointer-events="none" x="0" y="0" font-size="10px" fill="#FFFFFF" font-family="sans-serif"> Claude</text><text text-anchor="middle" pointer-events="none" x="0" y="10" font-size="10px" fill="#FFFFFF" font-family="sans-serif"> Shannon</text></g><g class="node" transform="translate(-77.83091457444547,243.51706967356685)"><circle class="outline" cx="0" cy="0" r="25" fill="#ECB5C9" stroke="#da7298" stroke-width="2px"/><text text-anchor="middle" pointer-events="none" font-family="sans-serif" dy="1.5625" font-size="25" fill="#2A2C34"/><text text-anchor="middle" pointer-events="none" font-family="sans-serif" dy="1.5625" font-size="25" fill="#2A2C34"/><text text-anchor="middle" pointer-events="none" x="0" y="0" font-size="10px" fill="#2A2C34" font-family="sans-serif"> ALGOL</text><text text-anchor="middle" pointer-events="none" x="0" y="10" font-size="10px" fill="#2A2C34" font-family="sans-serif"> 60</text></g><g class="node" transform="translate(-102.71433483550759,137.17166647190356)"><circle class="outline" cx="0" cy="0" r="25" fill="#F16667" stroke="#eb2728" stroke-width="2px"/><text text-anchor="middle" pointer-events="none" font-family="sans-serif" dy="1.5625" font-size="25" fill="#FFFFFF"/><text text-anchor="middle" pointer-events="none" font-family="sans-serif" dy="1.5625" font-size="25" fill="#FFFFFF"/><text text-anchor="middle" pointer-events="none" x="0" y="0" font-size="10px" fill="#FFFFFF" font-family="sans-serif"> August</text><text text-anchor="middle" pointer-events="none" x="0" y="10" font-size="10px" fill="#FFFFFF" font-family="sans-serif"> 1959</text></g><g class="node" transform="translate(-285.29089598033084,236.37743816454181)"><circle class="outline" cx="0" cy="0" r="25" fill="#ECB5C9" stroke="#da7298" stroke-width="2px"/><text text-anchor="middle" pointer-events="none" font-family="sans-serif" dy="1.5625" font-size="25" fill="#2A2C34"/><text text-anchor="middle" pointer-events="none" x="0" y="5" font-size="10px" fill="#2A2C34" font-family="sans-serif"> Compati…</text></g><g class="node" transform="translate(-243.9057039123539,336.40951700183336)"><circle class="outline" cx="0" cy="0" r="25" fill="#F16667" stroke="#eb2728" stroke-width="2px"/><text text-anchor="middle" pointer-events="none" font-family="sans-serif" dy="1.5625" font-size="25" fill="#FFFFFF"/><text text-anchor="middle" pointer-events="none" x="0" y="5" font-size="10px" fill="#FFFFFF" font-family="sans-serif"> 1961</text></g></g></svg>