<svg xmlns="http://www.w3.org/2000/svg" width="1293.64501953125" height="1349.7825927734375" viewBox="-538.5281372070312 -578.5612182617188 1293.64501953125 1349.7825927734375"><title>Neo4j Graph Visualization</title><desc>Created using Neo4j (http://www.neo4j.com/)</desc><g class="layer relationships"><g class="relationship" transform="translate(-115.8346008580818 37.13691173119625) rotate(419.5104593279649)"><path class="outline" fill="#A5ABB6" stroke="none" d="M 25 0.5 L 76.95675523514751 0.5 L 76.95675523514751 -0.5 L 25 -0.5 Z M 97.71456773514751 0.5 L 149.67132297029502 0.5 L 149.67132297029502 3.5 L 156.67132297029502 0 L 149.67132297029502 -3.5 L 149.67132297029502 -0.5 L 97.71456773514751 -0.5 Z"/><text text-anchor="middle" pointer-events="none" font-size="8px" fill="#000000" x="87.33566148514751" y="3" font-family="sans-serif">title</text></g><g class="relationship" transform="translate(-115.8346008580818 37.13691173119625) rotate(485.9960135870835)"><path class="outline" fill="#A5ABB6" stroke="none" d="M 25 0.5 L 26.3769084307297 0.5 L 26.3769084307297 -0.5 L 25 -0.5 Z M 85.2284709307297 0.5 L 86.6053793614594 0.5 L 86.6053793614594 3.5 L 93.6053793614594 0 L 86.6053793614594 -3.5 L 86.6053793614594 -0.5 L 85.2284709307297 -0.5 Z"/><text text-anchor="middle" pointer-events="none" font-size="8px" fill="#000000" x="55.8026896807297" y="3" transform="rotate(180 55.8026896807297 0)" font-family="sans-serif">employee_o…</text></g><g class="relationship" transform="translate(-115.8346008580818 37.13691173119625) rotate(296.1569574701723)"><path class="outline" fill="#A5ABB6" stroke="none" d="M 25 0.5 L 25.33880862062442 0.5 L 25.33880862062442 -0.5 L 25 -0.5 Z M 102.86615237062442 0.5 L 103.20496099124884 0.5 L 103.20496099124884 3.5 L 110.20496099124884 0 L 103.20496099124884 -3.5 L 103.20496099124884 -0.5 L 102.86615237062442 -0.5 Z"/><text text-anchor="middle" pointer-events="none" font-size="8px" fill="#000000" x="64.10248049562442" y="3" font-family="sans-serif">employee_or_me…</text></g><g class="relationship" transform="translate(-115.8346008580818 37.13691173119625) rotate(400.254183615663)"><path class="outline" fill="#A5ABB6" stroke="none" d="M 24.018736134675446,-6.953439040707552 L 24.277555179777966,-5.987513214418485 A 239.09736159772916 239.09736159772916 0 0 1 32.9954136532201,-8.148803566286261 L 32.77305615004003,-9.123768766064956 A 240.09736159772916 240.09736159772916 0 0 0 24.018736134675446,-6.953439040707552 Z M 134.86105312477952,-10.143555039695855 L 134.65821646382804,-9.164342453495067 A 239.09736159772916 239.09736159772916 0 0 1 143.41751046283542,-7.177636388925652 L 142.69909595480584,-4.26492620858628 L 150.3335699682989,-5.986787566913193 L 144.3753964735415,-11.061249962711482 L 143.65698196551193,-8.14853978237211 A 240.09736159772916 240.09736159772916 0 0 0 134.86105312477952,-10.143555039695855"/><text text-anchor="middle" pointer-events="none" font-size="8px" fill="#000000" x="83.76721865503671" y="-11.622604928775388" font-family="sans-serif">employee_or_member_of</text></g><g class="relationship" transform="translate(-115.8346008580818 37.13691173119625) rotate(267.8471892661383)"><path class="outline" fill="#A5ABB6" stroke="none" d="M 24.018736134675446,-6.953439040707552 L 24.277555179777966,-5.987513214418485 A 144.5188122549135 144.5188122549135 0 0 1 41.42978049305071,-9.48584034765787 L 41.289646517702415,-10.475972898861528 A 145.5188122549135 145.5188122549135 0 0 0 24.018736134675446,-6.953439040707552 Z M 78.14989387043798,-10.977035047130585 L 78.03672556286106,-9.983459215017007 A 144.5188122549135 144.5188122549135 0 0 1 95.27770499872956,-6.952658327397991 L 94.58030246045257,-4.034845842058194 L 102.20216788756859,-5.811687818974968 L 96.20757504976555,-10.84307497451772 L 95.51017251148856,-7.925262489177923 A 145.5188122549135 145.5188122549135 0 0 0 78.14989387043798,-10.977035047130585"/><text text-anchor="middle" pointer-events="none" font-size="8px" fill="#000000" x="59.710635705341666" y="-8.398475534084213" transform="rotate(180 59.710635705341666 -11.398475534084213)" font-family="sans-serif">children</text></g><g class="relationship" transform="translate(-115.8346008580818 37.13691173119625) rotate(373.79970366921583)"><path class="outline" fill="#A5ABB6" stroke="none" d="M 25 0.5 L 30.100513980131517 0.5 L 30.100513980131517 -0.5 L 25 -0.5 Z M 90.17473273013152 0.5 L 95.27524671026303 0.5 L 95.27524671026303 3.5 L 102.27524671026303 0 L 95.27524671026303 -3.5 L 95.27524671026303 -0.5 L 90.17473273013152 -0.5 Z"/><text text-anchor="middle" pointer-events="none" font-size="8px" fill="#000000" x="60.13762335513152" y="3" font-family="sans-serif">date_of_death</text></g><g class="relationship" transform="translate(-115.8346008580818 37.13691173119625) rotate(267.8471892661383)"><path class="outline" fill="#A5ABB6" stroke="none" d="M 24.018736134675446,6.953439040707552 L 24.277555179777966,5.987513214418485 A 144.5188122549135 144.5188122549135 0 0 0 42.46519949954419,9.628566413756147 L 42.332230120903674,10.619686560026992 A 145.5188122549135 145.5188122549135 0 0 1 24.018736134675446,6.953439040707552 Z M 77.10378906368078,11.09235598776587 L 76.99780955039476,10.097987674330824 A 144.5188122549135 144.5188122549135 0 0 0 95.27770499872956,6.952658327397991 L 94.58030246045257,4.034845842058194 L 102.20216788756859,5.811687818974968 L 96.20757504976555,10.84307497451772 L 95.51017251148856,7.925262489177923 A 145.5188122549135 145.5188122549135 0 0 1 77.10378906368078,11.09235598776587"/><text text-anchor="middle" pointer-events="none" font-size="8px" fill="#000000" x="59.71063570534171" y="14.398475534084213" transform="rotate(180 59.71063570534171 11.398475534084213)" font-family="sans-serif">parents</text></g><g class="relationship" transform="translate(-115.8346008580818 37.13691173119625) rotate(255.67595353923684)"><path class="outline" fill="#A5ABB6" stroke="none" d="M 25 0.5 L 58.90833363236963 0.5 L 58.90833363236963 -0.5 L 25 -0.5 Z M 111.49427113236963 0.5 L 145.40260476473927 0.5 L 145.40260476473927 3.5 L 152.40260476473927 0 L 145.40260476473927 -3.5 L 145.40260476473927 -0.5 L 111.49427113236963 -0.5 Z"/><text text-anchor="middle" pointer-events="none" font-size="8px" fill="#000000" x="85.20130238236963" y="3" transform="rotate(180 85.20130238236963 0)" font-family="sans-serif">city_of_birth</text></g><g class="relationship" transform="translate(-115.8346008580818 37.13691173119625) rotate(438.62397558632057)"><path class="outline" fill="#A5ABB6" stroke="none" d="M 25 0.5 L 53.65066940395711 0.5 L 53.65066940395711 -0.5 L 25 -0.5 Z M 118.69754440395711 0.5 L 147.34821380791422 0.5 L 147.34821380791422 3.5 L 154.34821380791422 0 L 147.34821380791422 -3.5 L 147.34821380791422 -0.5 L 118.69754440395711 -0.5 Z"/><text text-anchor="middle" pointer-events="none" font-size="8px" fill="#000000" x="86.17410690395711" y="3" font-family="sans-serif">award_received</text></g><g class="relationship" transform="translate(-115.8346008580818 37.13691173119625) rotate(479.8676593380073)"><path class="outline" fill="#A5ABB6" stroke="none" d="M 25 0.5 L 67.20757959744047 0.5 L 67.20757959744047 -0.5 L 25 -0.5 Z M 102.32086084744047 0.5 L 144.52844044488094 0.5 L 144.52844044488094 3.5 L 151.52844044488094 0 L 144.52844044488094 -3.5 L 144.52844044488094 -0.5 L 102.32086084744047 -0.5 Z"/><text text-anchor="middle" pointer-events="none" font-size="8px" fill="#000000" x="84.76422022244047" y="3" transform="rotate(180 84.76422022244047 0)" font-family="sans-serif">religion</text></g><g class="relationship" transform="translate(-115.8346008580818 37.13691173119625) rotate(239.83158458208823)"><path class="outline" fill="#A5ABB6" stroke="none" d="M 25 0.5 L 31.38889725121561 0.5 L 31.38889725121561 -0.5 L 25 -0.5 Z M 96.43577225121561 0.5 L 102.82466950243122 0.5 L 102.82466950243122 3.5 L 109.82466950243122 0 L 102.82466950243122 -3.5 L 102.82466950243122 -0.5 L 96.43577225121561 -0.5 Z"/><text text-anchor="middle" pointer-events="none" font-size="8px" fill="#000000" x="63.91233475121561" y="3" transform="rotate(180 63.91233475121561 0)" font-family="sans-serif">award_received</text></g><g class="relationship" transform="translate(-115.8346008580818 37.13691173119625) rotate(412.7071983445908)"><path class="outline" fill="#A5ABB6" stroke="none" d="M 25 0.5 L 43.93315726398977 0.5 L 43.93315726398977 -0.5 L 25 -0.5 Z M 72.37846976398977 0.5 L 91.31162702797954 0.5 L 91.31162702797954 3.5 L 98.31162702797954 0 L 91.31162702797954 -3.5 L 91.31162702797954 -0.5 L 72.37846976398977 -0.5 Z"/><text text-anchor="middle" pointer-events="none" font-size="8px" fill="#000000" x="58.15581351398977" y="3" font-family="sans-serif">origin</text></g><g class="relationship" transform="translate(-115.8346008580818 37.13691173119625) rotate(221.67962769631612)"><path class="outline" fill="#A5ABB6" stroke="none" d="M 25 0.5 L 30.584967236631186 0.5 L 30.584967236631186 -0.5 L 25 -0.5 Z M 133.2490297366312 0.5 L 138.83399697326237 0.5 L 138.83399697326237 3.5 L 145.83399697326237 0 L 138.83399697326237 -3.5 L 138.83399697326237 -0.5 L 133.2490297366312 -0.5 Z"/><text text-anchor="middle" pointer-events="none" font-size="8px" fill="#000000" x="81.91699848663119" y="3" transform="rotate(180 81.91699848663119 0)" font-family="sans-serif">employee_or_member_of</text></g><g class="relationship" transform="translate(-115.8346008580818 37.13691173119625) rotate(459.83694377738806)"><path class="outline" fill="#A5ABB6" stroke="none" d="M 25 0.5 L 56.15161704202866 0.5 L 56.15161704202866 -0.5 L 25 -0.5 Z M 112.44067954202866 0.5 L 143.59229658405732 0.5 L 143.59229658405732 3.5 L 150.59229658405732 0 L 143.59229658405732 -3.5 L 143.59229658405732 -0.5 L 112.44067954202866 -0.5 Z"/><text text-anchor="middle" pointer-events="none" font-size="8px" fill="#000000" x="84.29614829202866" y="3" transform="rotate(180 84.29614829202866 0)" font-family="sans-serif">date_of_birth</text></g><g class="relationship" transform="translate(-115.8346008580818 37.13691173119625) rotate(535.2589591513062)"><path class="outline" fill="#A5ABB6" stroke="none" d="M 25 0.5 L 43.54339479454861 0.5 L 43.54339479454861 -0.5 L 25 -0.5 Z M 71.98870729454862 0.5 L 90.53210208909722 0.5 L 90.53210208909722 3.5 L 97.53210208909722 0 L 90.53210208909722 -3.5 L 90.53210208909722 -0.5 L 71.98870729454862 -0.5 Z"/><text text-anchor="middle" pointer-events="none" font-size="8px" fill="#000000" x="57.76605104454861" y="3" transform="rotate(180 57.76605104454861 0)" font-family="sans-serif">origin</text></g><g class="relationship" transform="translate(-115.8346008580818 37.13691173119625) rotate(309.5723565195067)"><path class="outline" fill="#A5ABB6" stroke="none" d="M 25 0.5 L 63.46456904995772 0.5 L 63.46456904995772 -0.5 L 25 -0.5 Z M 112.15988154995772 0.5 L 150.62445059991543 0.5 L 150.62445059991543 3.5 L 157.62445059991543 0 L 150.62445059991543 -3.5 L 150.62445059991543 -0.5 L 112.15988154995772 -0.5 Z"/><text text-anchor="middle" pointer-events="none" font-size="8px" fill="#000000" x="87.81222529995772" y="3" font-family="sans-serif">occupation</text></g><g class="relationship" transform="translate(-115.8346008580818 37.13691173119625) rotate(202.45763450465478)"><path class="outline" fill="#A5ABB6" stroke="none" d="M 24.018736134675446,-6.953439040707552 L 24.277555179777966,-5.987513214418485 A 172.1381981902088 172.1381981902088 0 0 1 24.81813122590701,-6.131419111117879 L 24.562452541583284,-7.098180927897204 A 173.1381981902088 173.1381981902088 0 0 0 24.018736134675446,-6.953439040707552 Z M 108.96659785515402,-8.136589210177675 L 108.7347807344166,-7.1638298244439795 A 172.1381981902088 172.1381981902088 0 0 1 109.27873352137975,-7.033266681450266 L 108.57380222747283,-4.117263960108822 L 116.20022842016094,-5.87442744922435 L 110.21864191325564,-10.921270309905525 L 109.51371061934871,-8.005267588564081 A 173.1381981902088 173.1381981902088 0 0 0 108.96659785515402,-8.136589210177675"/><text text-anchor="middle" pointer-events="none" font-size="8px" fill="#000000" x="66.70642478628521" y="-9.339916377724137" transform="rotate(180 66.70642478628521 -12.339916377724137)" font-family="sans-serif">employee_or_mem…</text></g><g class="relationship" transform="translate(-115.8346008580818 37.13691173119625) rotate(202.45763450465478)"><path class="outline" fill="#A5ABB6" stroke="none" d="M 24.018736134675446,6.953439040707552 L 24.277555179777966,5.987513214418485 A 172.1381981902088 172.1381981902088 0 0 0 38.76362341156692,9.206847466569485 L 38.58895807775039,10.191475325794869 A 173.1381981902088 173.1381981902088 0 0 1 24.018736134675446,6.953439040707552 Z M 94.86823684016181,10.883868678876553 L 94.71784808798986,9.895241740532185 A 172.1381981902088 172.1381981902088 0 0 0 109.27873352137975,7.033266681450266 L 108.57380222747283,4.117263960108822 L 116.20022842016094,5.87442744922435 L 110.21864191325564,10.921270309905525 L 109.51371061934871,8.005267588564081 A 173.1381981902088 173.1381981902088 0 0 1 94.86823684016181,10.883868678876553"/><text text-anchor="middle" pointer-events="none" font-size="8px" fill="#000000" x="66.7064247862853" y="15.339916377724137" transform="rotate(180 66.7064247862853 12.339916377724137)" font-family="sans-serif">city_of_death</text></g><g class="relationship" transform="translate(-115.8346008580818 37.13691173119625) rotate(381.20952748748766)"><path class="outline" fill="#A5ABB6" stroke="none" d="M 25 0.5 L 74.15997574737284 0.5 L 74.15997574737284 -0.5 L 25 -0.5 Z M 102.60528824737284 0.5 L 151.76526399474568 0.5 L 151.76526399474568 3.5 L 158.76526399474568 0 L 151.76526399474568 -3.5 L 151.76526399474568 -0.5 L 102.60528824737284 -0.5 Z"/><text text-anchor="middle" pointer-events="none" font-size="8px" fill="#000000" x="88.38263199737284" y="3" font-family="sans-serif">origin</text></g><g class="relationship" transform="translate(-115.8346008580818 37.13691173119625) rotate(331.3616646884694)"><path class="outline" fill="#A5ABB6" stroke="none" d="M 25 0.5 L 68.83297744541404 0.5 L 68.83297744541404 -0.5 L 25 -0.5 Z M 103.94625869541404 0.5 L 147.7792361408281 0.5 L 147.7792361408281 3.5 L 154.7792361408281 0 L 147.7792361408281 -3.5 L 147.7792361408281 -0.5 L 103.94625869541404 -0.5 Z"/><text text-anchor="middle" pointer-events="none" font-size="8px" fill="#000000" x="86.38961807041404" y="3" font-family="sans-serif">religion</text></g><g class="relationship" transform="translate(-115.8346008580818 37.13691173119625) rotate(350.8649476282901)"><path class="outline" fill="#A5ABB6" stroke="none" d="M 25 0.5 L 25.97132481254434 0.5 L 25.97132481254434 -0.5 L 25 -0.5 Z M 120.57288731254434 0.5 L 121.54421212508868 0.5 L 121.54421212508868 3.5 L 128.54421212508868 0 L 121.54421212508868 -3.5 L 121.54421212508868 -0.5 L 120.57288731254434 -0.5 Z"/><text text-anchor="middle" pointer-events="none" font-size="8px" fill="#000000" x="73.27210606254434" y="3" font-family="sans-serif">stateorprovince_of_bi…</text></g><g class="relationship" transform="translate(-115.8346008580818 37.13691173119625) rotate(506.3498527615622)"><path class="outline" fill="#A5ABB6" stroke="none" d="M 25 0.5 L 27.12932299938653 0.5 L 27.12932299938653 -0.5 L 25 -0.5 Z M 120.61369799938653 0.5 L 122.74302099877306 0.5 L 122.74302099877306 3.5 L 129.74302099877306 0 L 122.74302099877306 -3.5 L 122.74302099877306 -0.5 L 120.61369799938653 -0.5 Z"/><text text-anchor="middle" pointer-events="none" font-size="8px" fill="#000000" x="73.87151049938653" y="3" transform="rotate(180 73.87151049938653 0)" font-family="sans-serif">member_of_political_…</text></g><g class="relationship" transform="translate(-115.8346008580818 37.13691173119625) rotate(447.855928159246)"><path class="outline" fill="#A5ABB6" stroke="none" d="M 25 0.5 L 26.031478684190404 0.5 L 26.031478684190404 -0.5 L 25 -0.5 Z M 91.0783536841904 0.5 L 92.10983236838081 0.5 L 92.10983236838081 3.5 L 99.10983236838081 0 L 92.10983236838081 -3.5 L 92.10983236838081 -0.5 L 91.0783536841904 -0.5 Z"/><text text-anchor="middle" pointer-events="none" font-size="8px" fill="#000000" x="58.554916184190404" y="3" font-family="sans-serif">award_received</text></g><g class="relationship" transform="translate(-115.8346008580818 37.13691173119625) rotate(281.578587356774)"><path class="outline" fill="#A5ABB6" stroke="none" d="M 24.018736134675446,-6.953439040707552 L 24.277555179777966,-5.987513214418485 A 250.13931976249404 250.13931976249404 0 0 1 65.57792405054559,-13.410084602638591 L 65.48421446888122,-14.405684177921898 A 251.13931976249404 251.13931976249404 0 0 0 24.018736134675446,-6.953439040707552 Z M 107.70400995841361,-14.814701161362734 L 107.62960649617287,-13.817472940338803 A 250.13931976249404 250.13931976249404 0 0 1 149.06602702171827,-7.196439115862899 L 148.3458565341424,-4.284162606184477 L 155.98136729223057,-6.001420729798932 L 150.02625433848613,-11.079474462100794 L 149.30608385091026,-8.167197952422372 A 251.13931976249404 251.13931976249404 0 0 0 107.70400995841361,-14.814701161362734"/><text text-anchor="middle" pointer-events="none" font-size="8px" fill="#000000" x="86.5903451090829" y="-11.999042988187455" font-family="sans-serif">employer</text></g><g class="relationship" transform="translate(-115.8346008580818 37.13691173119625) rotate(400.254183615663)"><path class="outline" fill="#A5ABB6" stroke="none" d="M 24.018736134675446,6.953439040707552 L 24.277555179777966,5.987513214418485 A 239.09736159772916 239.09736159772916 0 0 0 47.58973913324762,11.002965918549165 L 47.42842088780967,11.989868357338764 A 240.09736159772916 240.09736159772916 0 0 1 24.018736134675446,6.953439040707552 Z M 120.15135802321208,12.716318628345192 L 120.00978690472087,11.726390540851384 A 239.09736159772916 239.09736159772916 0 0 0 143.41751046283542,7.177636388925652 L 142.69909595480584,4.26492620858628 L 150.3335699682989,5.986787566913193 L 144.3753964735415,11.061249962711482 L 143.65698196551193,8.14853978237211 A 240.09736159772916 240.09736159772916 0 0 1 120.15135802321208,12.716318628345192"/><text text-anchor="middle" pointer-events="none" font-size="8px" fill="#000000" x="83.76721865503679" y="17.622604928775388" font-family="sans-serif">schools_attended</text></g><g class="relationship" transform="translate(-115.8346008580818 37.13691173119625) rotate(281.578587356774)"><path class="outline" fill="#A5ABB6" stroke="none" d="M 24.018736134675446,6.953439040707552 L 24.277555179777966,5.987513214418485 A 250.13931976249404 250.13931976249404 0 0 0 60.38827745913558,12.866950447348074 L 60.27382085298766,13.860378696045018 A 251.13931976249404 251.13931976249404 0 0 1 24.018736134675446,6.953439040707552 Z M 112.92399026945239,14.370443068045802 L 112.8288016099117,13.374983817702116 A 250.13931976249404 250.13931976249404 0 0 0 149.06602702171827,7.196439115862899 L 148.3458565341424,4.284162606184477 L 155.98136729223057,6.001420729798932 L 150.02625433848613,11.079474462100794 L 149.30608385091026,8.167197952422372 A 251.13931976249404 251.13931976249404 0 0 1 112.92399026945239,14.370443068045802"/><text text-anchor="middle" pointer-events="none" font-size="8px" fill="#000000" x="86.59034510908293" y="17.999042988187455" font-family="sans-serif">educated_at</text></g><g class="relationship" transform="translate(-115.8346008580818 37.13691173119625) rotate(325.4454920782513)"><path class="outline" fill="#A5ABB6" stroke="none" d="M 25 0.5 L 25.093831702240273 0.5 L 25.093831702240273 -0.5 L 25 -0.5 Z M 89.68367545224027 0.5 L 89.77750715448055 0.5 L 89.77750715448055 3.5 L 96.77750715448055 0 L 89.77750715448055 -3.5 L 89.77750715448055 -0.5 L 89.68367545224027 -0.5 Z"/><text text-anchor="middle" pointer-events="none" font-size="8px" fill="#000000" x="57.38875357724027" y="3" font-family="sans-serif">schools_atten…</text></g><g class="relationship" transform="translate(-115.8346008580818 37.13691173119625) rotate(533.2229287730784)"><path class="outline" fill="#A5ABB6" stroke="none" d="M 25 0.5 L 74.393098772224 0.5 L 74.393098772224 -0.5 L 25 -0.5 Z M 107.463411272224 0.5 L 156.856510044448 0.5 L 156.856510044448 3.5 L 163.856510044448 0 L 156.856510044448 -3.5 L 156.856510044448 -0.5 L 107.463411272224 -0.5 Z"/><text text-anchor="middle" pointer-events="none" font-size="8px" fill="#000000" x="90.928255022224" y="3" transform="rotate(180 90.928255022224 0)" font-family="sans-serif">spouse</text></g><g class="relationship" transform="translate(105.99030846202574 48.01066409676901) rotate(182.80636569118678)"><path class="outline" fill="#A5ABB6" stroke="none" d="M 25 0.5 L 80.48508438235939 0.5 L 80.48508438235939 -0.5 L 25 -0.5 Z M 134.6061781323594 0.5 L 190.09126251471878 0.5 L 190.09126251471878 3.5 L 197.09126251471878 0 L 190.09126251471878 -3.5 L 190.09126251471878 -0.5 L 134.6061781323594 -0.5 Z"/><text text-anchor="middle" pointer-events="none" font-size="8px" fill="#000000" x="107.54563125735939" y="3" transform="rotate(180 107.54563125735939 0)" font-family="sans-serif">designed_by</text></g><g class="relationship" transform="translate(244.01328795136757 614.7668221027225) rotate(456.1389345373864)"><path class="outline" fill="#A5ABB6" stroke="none" d="M 25 0.5 L 26.625666331049402 0.5 L 26.625666331049402 -0.5 L 25 -0.5 Z M 73.1334788310494 0.5 L 74.7591451620988 0.5 L 74.7591451620988 3.5 L 81.7591451620988 0 L 74.7591451620988 -3.5 L 74.7591451620988 -0.5 L 73.1334788310494 -0.5 Z"/><text text-anchor="middle" pointer-events="none" font-size="8px" fill="#000000" x="49.8795725810494" y="3" transform="rotate(180 49.8795725810494 0)" font-family="sans-serif">located_i…</text></g><g class="relationship" transform="translate(244.01328795136757 614.7668221027225) rotate(396.7813674668177)"><path class="outline" fill="#A5ABB6" stroke="none" d="M 25 0.5 L 31.73542679684163 0.5 L 31.73542679684163 -0.5 L 25 -0.5 Z M 66.96198929684164 0.5 L 73.69741609368326 0.5 L 73.69741609368326 3.5 L 80.69741609368326 0 L 73.69741609368326 -3.5 L 73.69741609368326 -0.5 L 66.96198929684164 -0.5 Z"/><text text-anchor="middle" pointer-events="none" font-size="8px" fill="#000000" x="49.34870804684163" y="3" font-family="sans-serif">country</text></g><g class="relationship" transform="translate(232.59649325361323 720.9137574073812) rotate(335.9577425156516)"><path class="outline" fill="#A5ABB6" stroke="none" d="M 24.018736134675446,-6.953439040707552 L 24.277555179777966,-5.987513214418485 A 102.10073251282886 102.10073251282886 0 0 1 31.636283852104516,-7.670382181147957 L 31.44953802813586,-8.652790445175839 A 103.10073251282886 103.10073251282886 0 0 0 24.018736134675446,-6.953439040707552 Z M 66.66954968234316,-9.222716417156647 L 66.51468773306127,-8.234780297427932 A 102.10073251282886 102.10073251282886 0 0 1 73.92401330740388,-6.790886199685839 L 73.24172112018172,-3.8695034155824626 L 80.85428850151546,-5.685768226851357 L 74.8337362237001,-10.686063245157008 L 74.15144403647794,-7.764680461053632 A 103.10073251282886 103.10073251282886 0 0 0 66.66954968234316,-9.222716417156647"/><text text-anchor="middle" pointer-events="none" font-size="8px" fill="#000000" x="49.04311395075958" y="-6.953080781925976" font-family="sans-serif">country</text></g><g class="relationship" transform="translate(328.6691104283169 678.0545419987059) rotate(515.9577425156516)"><path class="outline" fill="#A5ABB6" stroke="none" d="M 24.018736134675446,-6.953439040707552 L 24.277555179777966,-5.987513214418485 A 102.10073251282886 102.10073251282886 0 0 1 25.296010753797205,-6.254786657752575 L 25.047166716208867,-7.22333022670378 A 103.10073251282886 103.10073251282886 0 0 0 24.018736134675446,-6.953439040707552 Z M 73.11481950315374,-8.001155174758935 L 72.89744325679827,-7.025067285519228 A 102.10073251282886 102.10073251282886 0 0 1 73.92401330740388,-6.790886199685839 L 73.24172112018172,-3.8695034155824626 L 80.85428850151546,-5.685768226851357 L 74.8337362237001,-10.686063245157008 L 74.15144403647794,-7.764680461053632 A 103.10073251282886 103.10073251282886 0 0 0 73.11481950315374,-8.001155174758935"/><text text-anchor="middle" pointer-events="none" font-size="8px" fill="#000000" x="49.04311395075958" y="-6.953080781925976" transform="rotate(180 49.04311395075958 -9.953080781925976)" font-family="sans-serif">contains_…</text></g><g class="relationship" transform="translate(492.313292725977 535.8169444374704) rotate(288.60786342782336)"><path class="outline" fill="#A5ABB6" stroke="none" d="M 25 0.5 L 26.17012752187337 0.5 L 26.17012752187337 -0.5 L 25 -0.5 Z M 78.81465877187337 0.5 L 79.98478629374674 0.5 L 79.98478629374674 3.5 L 86.98478629374674 0 L 79.98478629374674 -3.5 L 79.98478629374674 -0.5 L 78.81465877187337 -0.5 Z"/><text text-anchor="middle" pointer-events="none" font-size="8px" fill="#000000" x="52.49239314687337" y="3" font-family="sans-serif">educated_at</text></g><g class="relationship" transform="translate(614.3493541487456 498.6006448714909) rotate(218.60800180649096)"><path class="outline" fill="#A5ABB6" stroke="none" d="M 25 0.5 L 25.39863515531046 0.5 L 25.39863515531046 -0.5 L 25 -0.5 Z M 78.04316640531046 0.5 L 78.44180156062092 0.5 L 78.44180156062092 3.5 L 85.44180156062092 0 L 78.44180156062092 -3.5 L 78.44180156062092 -0.5 L 78.04316640531046 -0.5 Z"/><text text-anchor="middle" pointer-events="none" font-size="8px" fill="#000000" x="51.72090078031046" y="3" transform="rotate(180 51.72090078031046 0)" font-family="sans-serif">educated_at</text></g><g class="relationship" transform="translate(417.3136817374037 429.8461005044529) rotate(359.9172661488435)"><path class="outline" fill="#A5ABB6" stroke="none" d="M 25 0.5 L 25.54417563807558 0.5 L 25.54417563807558 -0.5 L 25 -0.5 Z M 78.18870688807559 0.5 L 78.73288252615116 0.5 L 78.73288252615116 3.5 L 85.73288252615116 0 L 78.73288252615116 -3.5 L 78.73288252615116 -0.5 L 78.18870688807559 -0.5 Z"/><text text-anchor="middle" pointer-events="none" font-size="8px" fill="#000000" x="51.86644126307558" y="3" font-family="sans-serif">educated_at</text></g><g class="relationship" transform="translate(624.7289627289938 370.8863566123233) rotate(508.69309585525536)"><path class="outline" fill="#A5ABB6" stroke="none" d="M 25 0.5 L 26.757171079164962 0.5 L 26.757171079164962 -0.5 L 25 -0.5 Z M 79.40170232916496 0.5 L 81.15887340832992 0.5 L 81.15887340832992 3.5 L 88.15887340832992 0 L 81.15887340832992 -3.5 L 81.15887340832992 -0.5 L 79.40170232916496 -0.5 Z"/><text text-anchor="middle" pointer-events="none" font-size="8px" fill="#000000" x="53.07943670416496" y="3" transform="rotate(180 53.07943670416496 0)" font-family="sans-serif">educated_at</text></g><g class="relationship" transform="translate(514.5850552849364 319.7992713214788) rotate(443.01593709672153)"><path class="outline" fill="#A5ABB6" stroke="none" d="M 25 0.5 L 30.760444158424498 0.5 L 30.760444158424498 -0.5 L 25 -0.5 Z M 72.94794415842449 0.5 L 78.708388316849 0.5 L 78.708388316849 3.5 L 85.708388316849 0 L 78.708388316849 -3.5 L 78.708388316849 -0.5 L 72.94794415842449 -0.5 Z"/><text text-anchor="middle" pointer-events="none" font-size="8px" fill="#000000" x="51.8541941584245" y="3" font-family="sans-serif">employer</text></g><g class="relationship" transform="translate(712.9378374553892 169.65123519558983) rotate(231.26734551455627)"><path class="outline" fill="#A5ABB6" stroke="none" d="M 24.018736134675446,-6.953439040707552 L 24.277555179777966,-5.987513214418485 A 104.78848929336858 104.78848929336858 0 0 1 24.86399745511225,-6.1428318985005035 L 24.61077484793234,-7.110239936100456 A 105.78848929336858 105.78848929336858 0 0 0 24.018736134675446,-6.953439040707552 Z M 74.90113543410096,-7.9143832418061635 L 74.67897209974706,-6.939373778842466 A 104.78848929336858 104.78848929336858 0 0 1 75.2700803927392,-6.802884138649035 L 74.5866674920297,-3.8817633251351844 L 82.1999311077231,-5.695107505912508 L 76.1812975936852,-10.697711890000837 L 75.4978846929757,-7.776591076486986 A 105.78848929336858 105.78848929336858 0 0 0 74.90113543410096,-7.9143832418061635"/><text text-anchor="middle" pointer-events="none" font-size="8px" fill="#000000" x="49.71546323743471" y="-7.044636881606436" transform="rotate(180 49.71546323743471 -10.044636881606436)" font-family="sans-serif">field_of_w…</text></g><g class="relationship" transform="translate(646.2754781753675 86.54012618902314) rotate(318.5224590515162)"><path class="outline" fill="#A5ABB6" stroke="none" d="M 24.018736134675446,-6.953439040707552 L 24.277555179777966,-5.987513214418485 A 104.83685551237066 104.83685551237066 0 0 1 25.67395914835957,-6.351396779368542 L 25.4284598843756,-7.320793556433188 A 105.83685551237066 105.83685551237066 0 0 0 24.018736134675446,-6.953439040707552 Z M 74.1013781384157,-8.098907846406206 L 73.88699111781186,-7.122159053012211 A 104.83685551237066 104.83685551237066 0 0 1 75.29431305386971,-6.8030975219533945 L 74.61088022133848,-3.8819813716748173 L 82.2241562099416,-5.695273604426947 L 76.20555683057802,-10.697919055658165 L 75.52212399804678,-7.776802905379587 A 105.83685551237066 105.83685551237066 0 0 0 74.1013781384157,-8.098907846406206"/><text text-anchor="middle" pointer-events="none" font-size="8px" fill="#000000" x="49.72756738797238" y="-7.046284483659377" font-family="sans-serif">discovere…</text></g><g class="relationship" transform="translate(646.2754781753675 86.54012618902314) rotate(411.26734551455627)"><path class="outline" fill="#A5ABB6" stroke="none" d="M 24.018736134675446,-6.953439040707552 L 24.277555179777966,-5.987513214418485 A 104.78848929336858 104.78848929336858 0 0 1 25.66214029629009,-6.3483982802558785 L 25.41653439249583,-7.317768044598367 A 105.78848929336858 105.78848929336858 0 0 0 24.018736134675446,-6.953439040707552 Z M 74.08915276194118,-8.096043638106877 L 73.87466495710456,-7.119316971338549 A 104.78848929336858 104.78848929336858 0 0 1 75.2700803927392,-6.802884138649035 L 74.5866674920297,-3.8817633251351844 L 82.1999311077231,-5.695107505912508 L 76.1812975936852,-10.697711890000837 L 75.4978846929757,-7.776591076486986 A 105.78848929336858 105.78848929336858 0 0 0 74.08915276194118,-8.096043638106877"/><text text-anchor="middle" pointer-events="none" font-size="8px" fill="#000000" x="49.71546323743471" y="-7.044636881606436" font-family="sans-serif">discovere…</text></g><g class="relationship" transform="translate(726.1169589640032 15.958125325131933) rotate(498.5224590515162)"><path class="outline" fill="#A5ABB6" stroke="none" d="M 24.018736134675446,-6.953439040707552 L 24.277555179777966,-5.987513214418485 A 104.83685551237066 104.83685551237066 0 0 1 24.875791576481618,-6.145919191458361 L 24.622678887161896,-7.113355993789838 A 105.83685551237066 105.83685551237066 0 0 0 24.018736134675446,-6.953439040707552 Z M 74.91337811841095,-7.917333094984542 L 74.6913189123849,-6.942299911436876 A 104.83685551237066 104.83685551237066 0 0 1 75.29431305386971,-6.8030975219533945 L 74.61088022133848,-3.8819813716748173 L 82.2241562099416,-5.695273604426947 L 76.20555683057802,-10.697919055658165 L 75.52212399804678,-7.776802905379587 A 105.83685551237066 105.83685551237066 0 0 0 74.91337811841095,-7.917333094984542"/><text text-anchor="middle" pointer-events="none" font-size="8px" fill="#000000" x="49.72756738797238" y="-7.046284483659377" transform="rotate(180 49.72756738797238 -10.046284483659377)" font-family="sans-serif">field_of_w…</text></g><g class="relationship" transform="translate(279.39540812246264 66.62319150049476) rotate(186.12641711090419)"><path class="outline" fill="#A5ABB6" stroke="none" d="M 25 0.5 L 54.2220502627861 0.5 L 54.2220502627861 -0.5 L 25 -0.5 Z M 113.1790815127861 0.5 L 142.4011317755722 0.5 L 142.4011317755722 3.5 L 149.4011317755722 0 L 142.4011317755722 -3.5 L 142.4011317755722 -0.5 L 113.1790815127861 -0.5 Z"/><text text-anchor="middle" pointer-events="none" font-size="8px" fill="#000000" x="83.7005658877861" y="3" transform="rotate(180 83.7005658877861 0)" font-family="sans-serif">influenced_by</text></g><g class="relationship" transform="translate(279.39540812246264 66.62319150049476) rotate(368.7105179856099)"><path class="outline" fill="#A5ABB6" stroke="none" d="M 24.018736134675446,-6.953439040707552 L 24.277555179777966,-5.987513214418485 A 138.48725968239825 138.48725968239825 0 0 1 37.450163286066655,-8.838154336800216 L 37.28646207444931,-9.824664302951106 A 139.48725968239825 139.48725968239825 0 0 0 24.018736134675446,-6.953439040707552 Z M 79.11827975750572,-10.406600614276016 L 78.98208391918241,-9.41591868064475 A 138.48725968239825 138.48725968239825 0 0 1 92.22889163485736,-6.932806827664544 L 91.53334325981871,-4.014551791177658 L 99.15407811583322,-5.796236458655488 L 93.15628946824225,-10.823813542980393 L 92.4607410932036,-7.905558506493506 A 139.48725968239825 139.48725968239825 0 0 0 79.11827975750572,-10.406600614276016"/><text text-anchor="middle" pointer-events="none" font-size="8px" fill="#000000" x="58.18738461503499" y="-8.192905343241904" font-family="sans-serif">inception</text></g><g class="relationship" transform="translate(279.39540812246264 66.62319150049476) rotate(368.7105179856099)"><path class="outline" fill="#A5ABB6" stroke="none" d="M 24.018736134675446,6.953439040707552 L 24.277555179777966,5.987513214418485 A 138.48725968239825 138.48725968239825 0 0 0 24.42635120141032,6.0272943171288205 L 24.168606594649447,6.993507398020228 A 139.48725968239825 139.48725968239825 0 0 1 24.018736134675446,6.953439040707552 Z M 92.30981403666138,7.941442369636121 L 92.07904659151755,6.968433435318559 A 138.48725968239825 138.48725968239825 0 0 0 92.22889163485736,6.932806827664544 L 91.53334325981871,4.014551791177658 L 99.15407811583322,5.796236458655488 L 93.15628946824225,10.823813542980393 L 92.4607410932036,7.905558506493506 A 139.48725968239825 139.48725968239825 0 0 1 92.30981403666138,7.941442369636121"/><text text-anchor="middle" pointer-events="none" font-size="8px" fill="#000000" x="58.18738461503503" y="14.192905343241904" font-family="sans-serif">publication_da…</text></g><g class="relationship" transform="translate(623.410467467959 -214.1264242450142) rotate(191.5375875548661)"><path class="outline" fill="#A5ABB6" stroke="none" d="M 25 0.5 L 26.54476790210272 0.5 L 26.54476790210272 -0.5 L 25 -0.5 Z M 75.63461165210272 0.5 L 77.17937955420544 0.5 L 77.17937955420544 3.5 L 84.17937955420544 0 L 77.17937955420544 -3.5 L 77.17937955420544 -0.5 L 75.63461165210272 -0.5 Z"/><text text-anchor="middle" pointer-events="none" font-size="8px" fill="#000000" x="51.08968977710272" y="3" transform="rotate(180 51.08968977710272 0)" font-family="sans-serif">instance_of</text></g><g class="relationship" transform="translate(623.410467467959 -214.1264242450142) rotate(452.3580657904817)"><path class="outline" fill="#A5ABB6" stroke="none" d="M 25 0.5 L 27.660666115865133 0.5 L 27.660666115865133 -0.5 L 25 -0.5 Z M 69.50441611586513 0.5 L 72.16508223173027 0.5 L 72.16508223173027 3.5 L 79.16508223173027 0 L 72.16508223173027 -3.5 L 72.16508223173027 -0.5 L 69.50441611586513 -0.5 Z"/><text text-anchor="middle" pointer-events="none" font-size="8px" fill="#000000" x="48.58254111586513" y="3" transform="rotate(180 48.58254111586513 0)" font-family="sans-serif">inception</text></g><g class="relationship" transform="translate(426.50872839973033 -294.73621030033485) rotate(393.16661660999785)"><path class="outline" fill="#A5ABB6" stroke="none" d="M 25 0.5 L 25.670449242737973 0.5 L 25.670449242737973 -0.5 L 25 -0.5 Z M 74.76029299273797 0.5 L 75.43074223547595 0.5 L 75.43074223547595 3.5 L 82.43074223547595 0 L 75.43074223547595 -3.5 L 75.43074223547595 -0.5 L 74.76029299273797 -0.5 Z"/><text text-anchor="middle" pointer-events="none" font-size="8px" fill="#000000" x="50.21537111773797" y="3" font-family="sans-serif">instance_of</text></g><g class="relationship" transform="translate(558.8219255126065 -337.81202040814946) rotate(472.59485426896885)"><path class="outline" fill="#A5ABB6" stroke="none" d="M 25 0.5 L 27.113013939148274 0.5 L 27.113013939148274 -0.5 L 25 -0.5 Z M 76.20285768914827 0.5 L 78.31587162829655 0.5 L 78.31587162829655 3.5 L 85.31587162829655 0 L 78.31587162829655 -3.5 L 78.31587162829655 -0.5 L 76.20285768914827 -0.5 Z"/><text text-anchor="middle" pointer-events="none" font-size="8px" fill="#000000" x="51.657935814148274" y="3" transform="rotate(180 51.657935814148274 0)" font-family="sans-serif">instance_of</text></g><g class="relationship" transform="translate(366.80063239116566 -470.6952236538343) rotate(206.1967181177189)"><path class="outline" fill="#A5ABB6" stroke="none" d="M 25 0.5 L 26.96331433789465 0.5 L 26.96331433789465 -0.5 L 25 -0.5 Z M 68.80706433789464 0.5 L 70.7703786757893 0.5 L 70.7703786757893 3.5 L 77.7703786757893 0 L 70.7703786757893 -3.5 L 70.7703786757893 -0.5 L 68.80706433789464 -0.5 Z"/><text text-anchor="middle" pointer-events="none" font-size="8px" fill="#000000" x="47.88518933789465" y="3" transform="rotate(180 47.88518933789465 0)" font-family="sans-serif">inception</text></g><g class="relationship" transform="translate(4.422881036837227 -549.5611936677597) rotate(531.8312806154056)"><path class="outline" fill="#A5ABB6" stroke="none" d="M 25 0.5 L 26.897418403006576 0.5 L 26.897418403006576 -0.5 L 25 -0.5 Z M 72.35444965300658 0.5 L 74.25186805601315 0.5 L 74.25186805601315 3.5 L 81.25186805601315 0 L 74.25186805601315 -3.5 L 74.25186805601315 -0.5 L 72.35444965300658 -0.5 Z"/><text text-anchor="middle" pointer-events="none" font-size="8px" fill="#000000" x="49.625934028006576" y="3" transform="rotate(180 49.625934028006576 0)" font-family="sans-serif">publicati…</text></g><g class="relationship" transform="translate(4.422881036837227 -549.5611936677597) rotate(374.1186030087356)"><path class="outline" fill="#A5ABB6" stroke="none" d="M 25 0.5 L 25.162059061143218 0.5 L 25.162059061143218 -0.5 L 25 -0.5 Z M 72.90034031114322 0.5 L 73.06239937228644 0.5 L 73.06239937228644 3.5 L 80.06239937228644 0 L 73.06239937228644 -3.5 L 73.06239937228644 -0.5 L 72.90034031114322 -0.5 Z"/><text text-anchor="middle" pointer-events="none" font-size="8px" fill="#000000" x="49.03119968614322" y="3" font-family="sans-serif">instance_…</text></g><g class="relationship" transform="translate(-433.4151759761429 -370.96755374051367) rotate(493.60914391544316)"><path class="outline" fill="#A5ABB6" stroke="none" d="M 25 0.5 L 35.16964830941997 0.5 L 35.16964830941997 -0.5 L 25 -0.5 Z M 68.18136705941997 0.5 L 78.35101536883994 0.5 L 78.35101536883994 3.5 L 85.35101536883994 0 L 78.35101536883994 -3.5 L 78.35101536883994 -0.5 L 68.18136705941997 -0.5 Z"/><text text-anchor="middle" pointer-events="none" font-size="8px" fill="#000000" x="51.67550768441997" y="3" transform="rotate(180 51.67550768441997 0)" font-family="sans-serif">part_of</text></g><g class="relationship" transform="translate(-303.37153492432765 59.42322473270536) rotate(307.21773911406666)"><path class="outline" fill="#A5ABB6" stroke="none" d="M 25 0.5 L 25.757831736942563 0.5 L 25.757831736942563 -0.5 L 25 -0.5 Z M 62.62501923694256 0.5 L 63.38285097388513 0.5 L 63.38285097388513 3.5 L 70.38285097388513 0 L 63.38285097388513 -3.5 L 63.38285097388513 -0.5 L 62.62501923694256 -0.5 Z"/><text text-anchor="middle" pointer-events="none" font-size="8px" fill="#000000" x="44.19142548694256" y="3" font-family="sans-serif">emplo…</text></g><g class="relationship" transform="translate(-303.37153492432765 59.42322473270536) rotate(497.15745027683585)"><path class="outline" fill="#A5ABB6" stroke="none" d="M 25 0.5 L 53.46495570873546 0.5 L 53.46495570873546 -0.5 L 25 -0.5 Z M 86.53526820873546 0.5 L 115.00022391747092 0.5 L 115.00022391747092 3.5 L 122.00022391747092 0 L 115.00022391747092 -3.5 L 115.00022391747092 -0.5 L 86.53526820873546 -0.5 Z"/><text text-anchor="middle" pointer-events="none" font-size="8px" fill="#000000" x="70.00011195873546" y="3" transform="rotate(180 70.00011195873546 0)" font-family="sans-serif">spouse</text></g><g class="relationship" transform="translate(-303.37153492432765 59.42322473270536) rotate(531.7552549949547)"><path class="outline" fill="#A5ABB6" stroke="none" d="M 25 0.5 L 58.09530054204173 0.5 L 58.09530054204173 -0.5 L 25 -0.5 Z M 78.85311304204173 0.5 L 111.94841358408345 0.5 L 111.94841358408345 3.5 L 118.94841358408345 0 L 111.94841358408345 -3.5 L 111.94841358408345 -0.5 L 78.85311304204173 -0.5 Z"/><text text-anchor="middle" pointer-events="none" font-size="8px" fill="#000000" x="68.47420679204173" y="3" transform="rotate(180 68.47420679204173 0)" font-family="sans-serif">title</text></g><g class="relationship" transform="translate(-303.37153492432765 59.42322473270536) rotate(207.0280953736879)"><path class="outline" fill="#A5ABB6" stroke="none" d="M 25 0.5 L 46.66547889844462 0.5 L 46.66547889844462 -0.5 L 25 -0.5 Z M 88.85297889844462 0.5 L 110.51845779688924 0.5 L 110.51845779688924 3.5 L 117.51845779688924 0 L 110.51845779688924 -3.5 L 110.51845779688924 -0.5 L 88.85297889844462 -0.5 Z"/><text text-anchor="middle" pointer-events="none" font-size="8px" fill="#000000" x="67.75922889844462" y="3" transform="rotate(180 67.75922889844462 0)" font-family="sans-serif">employer</text></g><g class="relationship" transform="translate(-494.5991890596477 460.61715008326496) rotate(405.1493273246974)"><path class="outline" fill="#A5ABB6" stroke="none" d="M 25 0.5 L 33.173914470173195 0.5 L 33.173914470173195 -0.5 L 25 -0.5 Z M 67.9121957201732 0.5 L 76.08611019034639 0.5 L 76.08611019034639 3.5 L 83.08611019034639 0 L 76.08611019034639 -3.5 L 76.08611019034639 -0.5 L 67.9121957201732 -0.5 Z"/><text text-anchor="middle" pointer-events="none" font-size="8px" fill="#000000" x="50.543055095173195" y="3" font-family="sans-serif">parents</text></g><g class="relationship" transform="translate(-65.4128478692007 634.7447287205955) rotate(537.170113613869)"><path class="outline" fill="#A5ABB6" stroke="none" d="M 25 0.5 L 40.59965757096484 0.5 L 40.59965757096484 -0.5 L 25 -0.5 Z M 61.35747007096484 0.5 L 76.95712764192967 0.5 L 76.95712764192967 3.5 L 83.95712764192967 0 L 76.95712764192967 -3.5 L 76.95712764192967 -0.5 L 61.35747007096484 -0.5 Z"/><text text-anchor="middle" pointer-events="none" font-size="8px" fill="#000000" x="50.97856382096484" y="3" transform="rotate(180 50.97856382096484 0)" font-family="sans-serif">title</text></g><g class="relationship" transform="translate(-65.4128478692007 634.7447287205955) rotate(371.1773098608618)"><path class="outline" fill="#A5ABB6" stroke="none" d="M 25 0.5 L 25.156277015180976 0.5 L 25.156277015180976 -0.5 L 25 -0.5 Z M 74.87112076518098 0.5 L 75.02739778036195 0.5 L 75.02739778036195 3.5 L 82.02739778036195 0 L 75.02739778036195 -3.5 L 75.02739778036195 -0.5 L 74.87112076518098 -0.5 Z"/><text text-anchor="middle" pointer-events="none" font-size="8px" fill="#000000" x="50.013698890180976" y="3" font-family="sans-serif">date_of_d…</text></g><g class="relationship" transform="translate(-65.4128478692007 634.7447287205955) rotate(455.65670937409567)"><path class="outline" fill="#A5ABB6" stroke="none" d="M 25 0.5 L 40.12238324164142 0.5 L 40.12238324164142 -0.5 L 25 -0.5 Z M 60.88019574164142 0.5 L 76.00257898328285 0.5 L 76.00257898328285 3.5 L 83.00257898328285 0 L 76.00257898328285 -3.5 L 76.00257898328285 -0.5 L 60.88019574164142 -0.5 Z"/><text text-anchor="middle" pointer-events="none" font-size="8px" fill="#000000" x="50.50128949164142" y="3" transform="rotate(180 50.50128949164142 0)" font-family="sans-serif">title</text></g></g><g class="layer nodes"><g class="node" transform="translate(-115.8346008580818,37.13691173119625)"><circle class="outline" cx="0" cy="0" r="25" fill="#C990C0" stroke="#b261a5" stroke-width="2px"/><text text-anchor="middle" pointer-events="none" font-family="sans-serif" dy="1.5625" font-size="25" fill="#FFFFFF"/><text text-anchor="middle" pointer-events="none" font-family="sans-serif" dy="1.5625" font-size="25" fill="#FFFFFF"/><text text-anchor="middle" pointer-events="none" x="0" y="0" font-size="10px" fill="#FFFFFF" font-family="sans-serif"> John</text><text text-anchor="middle" pointer-events="none" x="0" y="10" font-size="10px" fill="#FFFFFF" font-family="sans-serif"> McCart…</text></g><g class="node" transform="translate(0.5067010052841053,-103.63379345158717)"><circle class="outline" cx="0" cy="0" r="25" fill="#F79767" stroke="#f36924" stroke-width="2px"/><text text-anchor="middle" pointer-events="none" font-family="sans-serif" dy="1.5625" font-size="25" fill="#FFFFFF"/><text text-anchor="middle" pointer-events="none" x="0" y="5" font-size="10px" fill="#FFFFFF" font-family="sans-serif"> Comput…</text></g><g class="node" transform="translate(-80.45868117622827,212.96161449719656)"><circle class="outline" cx="0" cy="0" r="25" fill="#57C7E3" stroke="#23b3d7" stroke-width="2px"/><text text-anchor="middle" pointer-events="none" font-family="sans-serif" dy="1.5625" font-size="25" fill="#2A2C34"/><text text-anchor="middle" pointer-events="none" font-family="sans-serif" dy="1.5625" font-size="25" fill="#2A2C34"/><text text-anchor="middle" pointer-events="none" x="0" y="0" font-size="10px" fill="#2A2C34" font-family="sans-serif"> Turing</text><text text-anchor="middle" pointer-events="none" x="0" y="10" font-size="10px" fill="#2A2C34" font-family="sans-serif"> Award</text></g><g class="node" transform="translate(-183.58985332003857,-79.42602092861765)"><circle class="outline" cx="0" cy="0" r="25" fill="#57C7E3" stroke="#23b3d7" stroke-width="2px"/><text text-anchor="middle" pointer-events="none" font-family="sans-serif" dy="1.5625" font-size="25" fill="#2A2C34"/><text text-anchor="middle" pointer-events="none" font-family="sans-serif" dy="1.5625" font-size="25" fill="#2A2C34"/><text text-anchor="middle" pointer-events="none" font-family="sans-serif" dy="1.5625" font-size="25" fill="#2A2C34"/><text text-anchor="middle" pointer-events="none" x="0" y="-5" font-size="10px" fill="#2A2C34" font-family="sans-serif"> United</text><text text-anchor="middle" pointer-events="none" x="0" y="5" font-size="10px" fill="#2A2C34" font-family="sans-serif"> States</text><text text-anchor="middle" pointer-events="none" x="0" y="15" font-size="10px" fill="#2A2C34" font-family="sans-serif"> Natio…</text></g><g class="node" transform="translate(-111.19135665767789,161.15985627696568)"><circle class="outline" cx="0" cy="0" r="25" fill="#57C7E3" stroke="#23b3d7" stroke-width="2px"/><text text-anchor="middle" pointer-events="none" font-family="sans-serif" dy="1.5625" font-size="25" fill="#2A2C34"/><text text-anchor="middle" pointer-events="none" font-family="sans-serif" dy="1.5625" font-size="25" fill="#2A2C34"/><text text-anchor="middle" pointer-events="none" x="0" y="0" font-size="10px" fill="#2A2C34" font-family="sans-serif"> Kyoto</text><text text-anchor="middle" pointer-events="none" x="0" y="10" font-size="10px" fill="#2A2C34" font-family="sans-serif"> Prize</text></g><g class="node" transform="translate(-145.8336396290762,210.1476405675315)"><circle class="outline" cx="0" cy="0" r="25" fill="#F16667" stroke="#eb2728" stroke-width="2px"/><text text-anchor="middle" pointer-events="none" font-family="sans-serif" dy="1.5625" font-size="25" fill="#FFFFFF"/><text text-anchor="middle" pointer-events="none" x="0" y="5" font-size="10px" fill="#FFFFFF" font-family="sans-serif"> Septem…</text></g><g class="node" transform="translate(-79.65622757479046,-139.44539126100787)"><circle class="outline" cx="0" cy="0" r="25" fill="#D9C8AE" stroke="#c0a378" stroke-width="2px"/><text text-anchor="middle" pointer-events="none" font-family="sans-serif" dy="1.5625" font-size="25" fill="#2A2C34"/><text text-anchor="middle" pointer-events="none" font-family="sans-serif" dy="1.5625" font-size="25" fill="#2A2C34"/><text text-anchor="middle" pointer-events="none" x="0" y="0" font-size="10px" fill="#2A2C34" font-family="sans-serif"> Stanford</text><text text-anchor="middle" pointer-events="none" x="0" y="10" font-size="10px" fill="#2A2C34" font-family="sans-serif"> Univers…</text></g><g class="node" transform="translate(105.99030846202574,48.01066409676901)"><circle class="outline" cx="0" cy="0" r="25" fill="#8DCC93" stroke="#5db665" stroke-width="2px"/><text text-anchor="middle" pointer-events="none" font-family="sans-serif" dy="1.5625" font-size="25" fill="#2A2C34"/><text text-anchor="middle" pointer-events="none" x="0" y="5" font-size="10px" fill="#2A2C34" font-family="sans-serif"> ALGOL</text></g><g class="node" transform="translate(244.01328795136757,614.7668221027225)"><circle class="outline" cx="0" cy="0" r="25" fill="#8DCC93" stroke="#5db665" stroke-width="2px"/><text text-anchor="middle" pointer-events="none" font-family="sans-serif" dy="1.5625" font-size="25" fill="#2A2C34"/><text text-anchor="middle" pointer-events="none" x="0" y="5" font-size="10px" fill="#2A2C34" font-family="sans-serif"> Cromane</text></g><g class="node" transform="translate(232.59649325361323,720.9137574073812)"><circle class="outline" cx="0" cy="0" r="25" fill="#8DCC93" stroke="#5db665" stroke-width="2px"/><text text-anchor="middle" pointer-events="none" font-family="sans-serif" dy="1.5625" font-size="25" fill="#2A2C34"/><text text-anchor="middle" pointer-events="none" font-family="sans-serif" dy="1.5625" font-size="25" fill="#2A2C34"/><text text-anchor="middle" pointer-events="none" x="0" y="0" font-size="10px" fill="#2A2C34" font-family="sans-serif"> County</text><text text-anchor="middle" pointer-events="none" x="0" y="10" font-size="10px" fill="#2A2C34" font-family="sans-serif"> Kerry</text></g><g class="node" transform="translate(328.6691104283169,678.0545419987059)"><circle class="outline" cx="0" cy="0" r="25" fill="#8DCC93" stroke="#5db665" stroke-width="2px"/><text text-anchor="middle" pointer-events="none" font-family="sans-serif" dy="1.5625" font-size="25" fill="#2A2C34"/><text text-anchor="middle" pointer-events="none" x="0" y="5" font-size="10px" fill="#2A2C34" font-family="sans-serif"> Ireland</text></g><g class="node" transform="translate(-244.6483511730755,122.88316691247624)"><circle class="outline" cx="0" cy="0" r="25" fill="#F79767" stroke="#f36924" stroke-width="2px"/><text text-anchor="middle" pointer-events="none" font-family="sans-serif" dy="1.5625" font-size="25" fill="#FFFFFF"/><text text-anchor="middle" pointer-events="none" x="0" y="5" font-size="10px" fill="#FFFFFF" font-family="sans-serif"> Republi…</text></g><g class="node" transform="translate(492.313292725977,535.8169444374704)"><circle class="outline" cx="0" cy="0" r="25" fill="#C990C0" stroke="#b261a5" stroke-width="2px"/><text text-anchor="middle" pointer-events="none" font-family="sans-serif" dy="1.5625" font-size="25" fill="#FFFFFF"/><text text-anchor="middle" pointer-events="none" font-family="sans-serif" dy="1.5625" font-size="25" fill="#FFFFFF"/><text text-anchor="middle" pointer-events="none" x="0" y="0" font-size="10px" fill="#FFFFFF" font-family="sans-serif"> Alan</text><text text-anchor="middle" pointer-events="none" x="0" y="10" font-size="10px" fill="#FFFFFF" font-family="sans-serif"> Turing</text></g><g class="node" transform="translate(528.0464488205159,429.68620470208816)"><circle class="outline" cx="0" cy="0" r="25" fill="#D9C8AE" stroke="#c0a378" stroke-width="2px"/><text text-anchor="middle" pointer-events="none" font-family="sans-serif" dy="1.5625" font-size="25" fill="#2A2C34"/><text text-anchor="middle" pointer-events="none" x="0" y="5" font-size="10px" fill="#2A2C34" font-family="sans-serif"> Princeton</text></g><g class="node" transform="translate(614.3493541487456,498.6006448714909)"><circle class="outline" cx="0" cy="0" r="25" fill="#C990C0" stroke="#b261a5" stroke-width="2px"/><text text-anchor="middle" pointer-events="none" font-family="sans-serif" dy="1.5625" font-size="25" fill="#FFFFFF"/><text text-anchor="middle" pointer-events="none" font-family="sans-serif" dy="1.5625" font-size="25" fill="#FFFFFF"/><text text-anchor="middle" pointer-events="none" x="0" y="0" font-size="10px" fill="#FFFFFF" font-family="sans-serif"> Marvin</text><text text-anchor="middle" pointer-events="none" x="0" y="10" font-size="10px" fill="#FFFFFF" font-family="sans-serif"> Minsky</text></g><g class="node" transform="translate(417.3136817374037,429.8461005044529)"><circle class="outline" cx="0" cy="0" r="25" fill="#C990C0" stroke="#b261a5" stroke-width="2px"/><text text-anchor="middle" pointer-events="none" font-family="sans-serif" dy="1.5625" font-size="25" fill="#FFFFFF"/><text text-anchor="middle" pointer-events="none" font-family="sans-serif" dy="1.5625" font-size="25" fill="#FFFFFF"/><text text-anchor="middle" pointer-events="none" x="0" y="0" font-size="10px" fill="#FFFFFF" font-family="sans-serif"> Allen</text><text text-anchor="middle" pointer-events="none" x="0" y="10" font-size="10px" fill="#FFFFFF" font-family="sans-serif"> Newell</text></g><g class="node" transform="translate(624.7289627289938,370.8863566123233)"><circle class="outline" cx="0" cy="0" r="25" fill="#C990C0" stroke="#b261a5" stroke-width="2px"/><text text-anchor="middle" pointer-events="none" font-family="sans-serif" dy="1.5625" font-size="25" fill="#FFFFFF"/><text text-anchor="middle" pointer-events="none" font-family="sans-serif" dy="1.5625" font-size="25" fill="#FFFFFF"/><text text-anchor="middle" pointer-events="none" x="0" y="0" font-size="10px" fill="#FFFFFF" font-family="sans-serif"> Herbert</text><text text-anchor="middle" pointer-events="none" x="0" y="10" font-size="10px" fill="#FFFFFF" font-family="sans-serif"> A. Simon</text></g><g class="node" transform="translate(514.5850552849364,319.7992713214788)"><circle class="outline" cx="0" cy="0" r="25" fill="#C990C0" stroke="#b261a5" stroke-width="2px"/><text text-anchor="middle" pointer-events="none" font-family="sans-serif" dy="1.5625" font-size="25" fill="#FFFFFF"/><text text-anchor="middle" pointer-events="none" font-family="sans-serif" dy="1.5625" font-size="25" fill="#FFFFFF"/><text text-anchor="middle" pointer-events="none" font-family="sans-serif" dy="1.5625" font-size="25" fill="#FFFFFF"/><text text-anchor="middle" pointer-events="none" x="0" y="-5" font-size="10px" fill="#FFFFFF" font-family="sans-serif"> Donald</text><text text-anchor="middle" pointer-events="none" x="0" y="5" font-size="10px" fill="#FFFFFF" font-family="sans-serif"> C.</text><text text-anchor="middle" pointer-events="none" x="0" y="15" font-size="10px" fill="#FFFFFF" font-family="sans-serif"> Spenc…</text></g><g class="node" transform="translate(712.9378374553892,169.65123519558983)"><circle class="outline" cx="0" cy="0" r="25" fill="#C990C0" stroke="#b261a5" stroke-width="2px"/><text text-anchor="middle" pointer-events="none" font-family="sans-serif" dy="1.5625" font-size="25" fill="#FFFFFF"/><text text-anchor="middle" pointer-events="none" x="0" y="5" font-size="10px" fill="#FFFFFF" font-family="sans-serif"> Nathani…</text></g><g class="node" transform="translate(646.2754781753675,86.54012618902314)"><circle class="outline" cx="0" cy="0" r="25" fill="#ECB5C9" stroke="#da7298" stroke-width="2px"/><text text-anchor="middle" pointer-events="none" font-family="sans-serif" dy="1.5625" font-size="25" fill="#2A2C34"/><text text-anchor="middle" pointer-events="none" font-family="sans-serif" dy="1.5625" font-size="25" fill="#2A2C34"/><text text-anchor="middle" pointer-events="none" x="0" y="0" font-size="10px" fill="#2A2C34" font-family="sans-serif"> Artificial</text><text text-anchor="middle" pointer-events="none" x="0" y="10" font-size="10px" fill="#2A2C34" font-family="sans-serif"> intellig…</text></g><g class="node" transform="translate(726.1169589640032,15.958125325131933)"><circle class="outline" cx="0" cy="0" r="25" fill="#C990C0" stroke="#b261a5" stroke-width="2px"/><text text-anchor="middle" pointer-events="none" font-family="sans-serif" dy="1.5625" font-size="25" fill="#FFFFFF"/><text text-anchor="middle" pointer-events="none" font-family="sans-serif" dy="1.5625" font-size="25" fill="#FFFFFF"/><text text-anchor="middle" pointer-events="none" x="0" y="0" font-size="10px" fill="#FFFFFF" font-family="sans-serif"> Claude</text><text text-anchor="middle" pointer-events="none" x="0" y="10" font-size="10px" fill="#FFFFFF" font-family="sans-serif"> Shannon</text></g><g class="node" transform="translate(279.39540812246264,66.62319150049476)"><circle class="outline" cx="0" cy="0" r="25" fill="#ECB5C9" stroke="#da7298" stroke-width="2px"/><text text-anchor="middle" pointer-events="none" font-family="sans-serif" dy="1.5625" font-size="25" fill="#2A2C34"/><text text-anchor="middle" pointer-events="none" font-family="sans-serif" dy="1.5625" font-size="25" fill="#2A2C34"/><text text-anchor="middle" pointer-events="none" x="0" y="0" font-size="10px" fill="#2A2C34" font-family="sans-serif"> ALGOL</text><text text-anchor="middle" pointer-events="none" x="0" y="10" font-size="10px" fill="#2A2C34" font-family="sans-serif"> 60</text></g><g class="node" transform="translate(401.4441548033897,85.32220433611641)"><circle class="outline" cx="0" cy="0" r="25" fill="#F16667" stroke="#eb2728" stroke-width="2px"/><text text-anchor="middle" pointer-events="none" font-family="sans-serif" dy="1.5625" font-size="25" fill="#FFFFFF"/><text text-anchor="middle" pointer-events="none" font-family="sans-serif" dy="1.5625" font-size="25" fill="#FFFFFF"/><text text-anchor="middle" pointer-events="none" x="0" y="0" font-size="10px" fill="#FFFFFF" font-family="sans-serif"> August</text><text text-anchor="middle" pointer-events="none" x="0" y="10" font-size="10px" fill="#FFFFFF" font-family="sans-serif"> 1959</text></g><g class="node" transform="translate(623.410467467959,-214.1264242450142)"><circle class="outline" cx="0" cy="0" r="25" fill="#ECB5C9" stroke="#da7298" stroke-width="2px"/><text text-anchor="middle" pointer-events="none" font-family="sans-serif" dy="1.5625" font-size="25" fill="#2A2C34"/><text text-anchor="middle" pointer-events="none" x="0" y="5" font-size="10px" fill="#2A2C34" font-family="sans-serif"> Compati…</text></g><g class="node" transform="translate(619.1246582267574,-110.0495478723484)"><circle class="outline" cx="0" cy="0" r="25" fill="#F16667" stroke="#eb2728" stroke-width="2px"/><text text-anchor="middle" pointer-events="none" font-family="sans-serif" dy="1.5625" font-size="25" fill="#FFFFFF"/><text text-anchor="middle" pointer-events="none" x="0" y="5" font-size="10px" fill="#FFFFFF" font-family="sans-serif"> 1961</text></g><g class="node" transform="translate(516.4371988725499,-235.96347363030645)"><circle class="outline" cx="0" cy="0" r="25" fill="#ECB5C9" stroke="#da7298" stroke-width="2px"/><text text-anchor="middle" pointer-events="none" font-family="sans-serif" dy="1.5625" font-size="25" fill="#2A2C34"/><text text-anchor="middle" pointer-events="none" x="0" y="5" font-size="10px" fill="#2A2C34" font-family="sans-serif"> time-sh…</text></g><g class="node" transform="translate(426.50872839973033,-294.73621030033485)"><circle class="outline" cx="0" cy="0" r="25" fill="#ECB5C9" stroke="#da7298" stroke-width="2px"/><text text-anchor="middle" pointer-events="none" font-family="sans-serif" dy="1.5625" font-size="25" fill="#2A2C34"/><text text-anchor="middle" pointer-events="none" font-family="sans-serif" dy="1.5625" font-size="25" fill="#2A2C34"/><text text-anchor="middle" pointer-events="none" x="0" y="0" font-size="10px" fill="#2A2C34" font-family="sans-serif"> BBN</text><text text-anchor="middle" pointer-events="none" x="0" y="10" font-size="10px" fill="#2A2C34" font-family="sans-serif"> Time-S…</text></g><g class="node" transform="translate(558.8219255126065,-337.81202040814946)"><circle class="outline" cx="0" cy="0" r="25" fill="#ECB5C9" stroke="#da7298" stroke-width="2px"/><text text-anchor="middle" pointer-events="none" font-family="sans-serif" dy="1.5625" font-size="25" fill="#2A2C34"/><text text-anchor="middle" pointer-events="none" x="0" y="5" font-size="10px" fill="#2A2C34" font-family="sans-serif"> Dartmo…</text></g><g class="node" transform="translate(366.80063239116566,-470.6952236538343)"><circle class="outline" cx="0" cy="0" r="25" fill="#ECB5C9" stroke="#da7298" stroke-width="2px"/><text text-anchor="middle" pointer-events="none" font-family="sans-serif" dy="1.5625" font-size="25" fill="#2A2C34"/><text text-anchor="middle" pointer-events="none" font-family="sans-serif" dy="1.5625" font-size="25" fill="#2A2C34"/><text text-anchor="middle" pointer-events="none" x="0" y="0" font-size="10px" fill="#2A2C34" font-family="sans-serif"> Space</text><text text-anchor="middle" pointer-events="none" x="0" y="10" font-size="10px" fill="#2A2C34" font-family="sans-serif"> fountain</text></g><g class="node" transform="translate(274.586451129908,-516.063665411085)"><circle class="outline" cx="0" cy="0" r="25" fill="#F16667" stroke="#eb2728" stroke-width="2px"/><text text-anchor="middle" pointer-events="none" font-family="sans-serif" dy="1.5625" font-size="25" fill="#FFFFFF"/><text text-anchor="middle" pointer-events="none" x="0" y="5" font-size="10px" fill="#FFFFFF" font-family="sans-serif"> 1982</text></g><g class="node" transform="translate(4.422881036837227,-549.5611936677597)"><circle class="outline" cx="0" cy="0" r="25" fill="#ECB5C9" stroke="#da7298" stroke-width="2px"/><text text-anchor="middle" pointer-events="none" font-family="sans-serif" dy="1.5625" font-size="25" fill="#2A2C34"/><text text-anchor="middle" pointer-events="none" font-family="sans-serif" dy="1.5625" font-size="25" fill="#2A2C34"/><text text-anchor="middle" pointer-events="none" font-family="sans-serif" dy="1.5625" font-size="25" fill="#2A2C34"/><text text-anchor="middle" pointer-events="none" font-family="sans-serif" dy="1.5625" font-size="25" fill="#2A2C34"/><text text-anchor="middle" pointer-events="none" x="0" y="-10" font-size="10px" fill="#2A2C34" font-family="sans-serif"> The</text><text text-anchor="middle" pointer-events="none" x="0" y="0" font-size="10px" fill="#2A2C34" font-family="sans-serif"> Robot</text><text text-anchor="middle" pointer-events="none" x="0" y="10" font-size="10px" fill="#2A2C34" font-family="sans-serif"> and the</text><text text-anchor="middle" pointer-events="none" x="0" y="20" font-size="10px" fill="#2A2C34" font-family="sans-serif"> Bab…</text></g><g class="node" transform="translate(-100.75095042594505,-534.4640203949017)"><circle class="outline" cx="0" cy="0" r="25" fill="#F16667" stroke="#eb2728" stroke-width="2px"/><text text-anchor="middle" pointer-events="none" font-family="sans-serif" dy="1.5625" font-size="25" fill="#FFFFFF"/><text text-anchor="middle" pointer-events="none" x="0" y="5" font-size="10px" fill="#FFFFFF" font-family="sans-serif"> 2001</text></g><g class="node" transform="translate(106.3116464673882,-523.9333330293846)"><circle class="outline" cx="0" cy="0" r="25" fill="#ECB5C9" stroke="#da7298" stroke-width="2px"/><text text-anchor="middle" pointer-events="none" font-family="sans-serif" dy="1.5625" font-size="25" fill="#2A2C34"/><text text-anchor="middle" pointer-events="none" font-family="sans-serif" dy="1.5625" font-size="25" fill="#2A2C34"/><text text-anchor="middle" pointer-events="none" x="0" y="0" font-size="10px" fill="#2A2C34" font-family="sans-serif"> Short</text><text text-anchor="middle" pointer-events="none" x="0" y="10" font-size="10px" fill="#2A2C34" font-family="sans-serif"> story</text></g><g class="node" transform="translate(-433.4151759761429,-370.96755374051367)"><circle class="outline" cx="0" cy="0" r="25" fill="#ECB5C9" stroke="#da7298" stroke-width="2px"/><text text-anchor="middle" pointer-events="none" font-family="sans-serif" dy="1.5625" font-size="25" fill="#2A2C34"/><text text-anchor="middle" pointer-events="none" font-family="sans-serif" dy="1.5625" font-size="25" fill="#2A2C34"/><text text-anchor="middle" pointer-events="none" x="0" y="0" font-size="10px" fill="#2A2C34" font-family="sans-serif"> Social</text><text text-anchor="middle" pointer-events="none" x="0" y="10" font-size="10px" fill="#2A2C34" font-family="sans-serif"> network</text></g><g class="node" transform="translate(-509.5281453224206,-291.0665994894752)"><circle class="outline" cx="0" cy="0" r="25" fill="#ECB5C9" stroke="#da7298" stroke-width="2px"/><text text-anchor="middle" pointer-events="none" font-family="sans-serif" dy="1.5625" font-size="25" fill="#2A2C34"/><text text-anchor="middle" pointer-events="none" font-family="sans-serif" dy="1.5625" font-size="25" fill="#2A2C34"/><text text-anchor="middle" pointer-events="none" x="0" y="0" font-size="10px" fill="#2A2C34" font-family="sans-serif"> Internet</text><text text-anchor="middle" pointer-events="none" x="0" y="10" font-size="10px" fill="#2A2C34" font-family="sans-serif"> culture</text></g><g class="node" transform="translate(-303.37153492432765,59.42322473270536)"><circle class="outline" cx="0" cy="0" r="25" fill="#C990C0" stroke="#b261a5" stroke-width="2px"/><text text-anchor="middle" pointer-events="none" font-family="sans-serif" dy="1.5625" font-size="25" fill="#FFFFFF"/><text text-anchor="middle" pointer-events="none" font-family="sans-serif" dy="1.5625" font-size="25" fill="#FFFFFF"/><text text-anchor="middle" pointer-events="none" x="0" y="0" font-size="10px" fill="#FFFFFF" font-family="sans-serif"> Carolyn</text><text text-anchor="middle" pointer-events="none" x="0" y="10" font-size="10px" fill="#FFFFFF" font-family="sans-serif"> Talcott</text></g><g class="node" transform="translate(-430.32466829637724,-5.34106125750904)"><circle class="outline" cx="0" cy="0" r="25" fill="#ECB5C9" stroke="#da7298" stroke-width="2px"/><text text-anchor="middle" pointer-events="none" font-family="sans-serif" dy="1.5625" font-size="25" fill="#2A2C34"/><text text-anchor="middle" pointer-events="none" font-family="sans-serif" dy="1.5625" font-size="25" fill="#2A2C34"/><text text-anchor="middle" pointer-events="none" x="0" y="0" font-size="10px" fill="#2A2C34" font-family="sans-serif"> SRI</text><text text-anchor="middle" pointer-events="none" x="0" y="10" font-size="10px" fill="#2A2C34" font-family="sans-serif"> Interna…</text></g><g class="node" transform="translate(7.7669112218156044,67.49567713299248)"><circle class="outline" cx="0" cy="0" r="25" fill="#F16667" stroke="#eb2728" stroke-width="2px"/><text text-anchor="middle" pointer-events="none" font-family="sans-serif" dy="1.5625" font-size="25" fill="#FFFFFF"/><text text-anchor="middle" pointer-events="none" font-family="sans-serif" dy="1.5625" font-size="25" fill="#FFFFFF"/><text text-anchor="middle" pointer-events="none" x="0" y="0" font-size="10px" fill="#FFFFFF" font-family="sans-serif"> October</text><text text-anchor="middle" pointer-events="none" x="0" y="10" font-size="10px" fill="#FFFFFF" font-family="sans-serif"> 24, 201…</text></g><g class="node" transform="translate(35.76218916474426,12.75990756970381)"><circle class="outline" cx="0" cy="0" r="25" fill="#8DCC93" stroke="#5db665" stroke-width="2px"/><text text-anchor="middle" pointer-events="none" font-family="sans-serif" dy="1.5625" font-size="25" fill="#2A2C34"/><text text-anchor="middle" pointer-events="none" x="0" y="5" font-size="10px" fill="#2A2C34" font-family="sans-serif"> Massac…</text></g><g class="node" transform="translate(-23.65801164735073,193.68705063644722)"><circle class="outline" cx="0" cy="0" r="25" fill="#F79767" stroke="#f36924" stroke-width="2px"/><text text-anchor="middle" pointer-events="none" font-family="sans-serif" dy="1.5625" font-size="25" fill="#FFFFFF"/><text text-anchor="middle" pointer-events="none" x="0" y="5" font-size="10px" fill="#FFFFFF" font-family="sans-serif"> reader</text></g><g class="node" transform="translate(-56.23197111140313,-84.22168089382333)"><circle class="outline" cx="0" cy="0" r="25" fill="#ECB5C9" stroke="#da7298" stroke-width="2px"/><text text-anchor="middle" pointer-events="none" font-family="sans-serif" dy="1.5625" font-size="25" fill="#2A2C34"/><text text-anchor="middle" pointer-events="none" x="0" y="5" font-size="10px" fill="#2A2C34" font-family="sans-serif"> Commu…</text></g><g class="node" transform="translate(55.483075854883396,103.61943497400435)"><circle class="outline" cx="0" cy="0" r="25" fill="#F79767" stroke="#f36924" stroke-width="2px"/><text text-anchor="middle" pointer-events="none" font-family="sans-serif" dy="1.5625" font-size="25" fill="#FFFFFF"/><text text-anchor="middle" pointer-events="none" x="0" y="5" font-size="10px" fill="#FFFFFF" font-family="sans-serif"> American</text></g><g class="node" transform="translate(-41.121509511689354,135.23742825253345)"><circle class="outline" cx="0" cy="0" r="25" fill="#F79767" stroke="#f36924" stroke-width="2px"/><text text-anchor="middle" pointer-events="none" font-family="sans-serif" dy="1.5625" font-size="25" fill="#FFFFFF"/><text text-anchor="middle" pointer-events="none" x="0" y="5" font-size="10px" fill="#FFFFFF" font-family="sans-serif"> Irish</text></g><g class="node" transform="translate(-76.05843455501517,742.2213706068912)"><circle class="outline" cx="0" cy="0" r="25" fill="#F79767" stroke="#f36924" stroke-width="2px"/><text text-anchor="middle" pointer-events="none" font-family="sans-serif" dy="1.5625" font-size="25" fill="#FFFFFF"/><text text-anchor="middle" pointer-events="none" x="0" y="5" font-size="10px" fill="#FFFFFF" font-family="sans-serif"> progra…</text></g><g class="node" transform="translate(-445.83217592211304,80.06569405869563)"><circle class="outline" cx="0" cy="0" r="25" fill="#F79767" stroke="#f36924" stroke-width="2px"/><text text-anchor="middle" pointer-events="none" font-family="sans-serif" dy="1.5625" font-size="25" fill="#FFFFFF"/><text text-anchor="middle" pointer-events="none" x="0" y="5" font-size="10px" fill="#FFFFFF" font-family="sans-serif"> comput…</text></g><g class="node" transform="translate(-411.15578687282334,159.38132027123487)"><circle class="outline" cx="0" cy="0" r="25" fill="#C990C0" stroke="#b261a5" stroke-width="2px"/><text text-anchor="middle" pointer-events="none" font-family="sans-serif" dy="1.5625" font-size="25" fill="#FFFFFF"/><text text-anchor="middle" pointer-events="none" font-family="sans-serif" dy="1.5625" font-size="25" fill="#FFFFFF"/><text text-anchor="middle" pointer-events="none" x="0" y="0" font-size="10px" fill="#FFFFFF" font-family="sans-serif"> John</text><text text-anchor="middle" pointer-events="none" x="0" y="10" font-size="10px" fill="#FFFFFF" font-family="sans-serif"> McCart…</text></g><g class="node" transform="translate(-15.540232808889554,-31.93407339550312)"><circle class="outline" cx="0" cy="0" r="25" fill="#D9C8AE" stroke="#c0a378" stroke-width="2px"/><text text-anchor="middle" pointer-events="none" font-family="sans-serif" dy="1.5625" font-size="25" fill="#2A2C34"/><text text-anchor="middle" pointer-events="none" font-family="sans-serif" dy="1.5625" font-size="25" fill="#2A2C34"/><text text-anchor="middle" pointer-events="none" x="0" y="0" font-size="10px" fill="#2A2C34" font-family="sans-serif"> Belmont</text><text text-anchor="middle" pointer-events="none" x="0" y="10" font-size="10px" fill="#2A2C34" font-family="sans-serif"> High Sc…</text></g><g class="node" transform="translate(41.95089244641094,-49.0275348232702)"><circle class="outline" cx="0" cy="0" r="25" fill="#F79767" stroke="#f36924" stroke-width="2px"/><text text-anchor="middle" pointer-events="none" font-family="sans-serif" dy="1.5625" font-size="25" fill="#FFFFFF"/><text text-anchor="middle" pointer-events="none" x="0" y="5" font-size="10px" fill="#FFFFFF" font-family="sans-serif"> Jewish</text></g><g class="node" transform="translate(17.42224788416863,149.9638657753615)"><circle class="outline" cx="0" cy="0" r="25" fill="#D9C8AE" stroke="#c0a378" stroke-width="2px"/><text text-anchor="middle" pointer-events="none" font-family="sans-serif" dy="1.5625" font-size="25" fill="#2A2C34"/><text text-anchor="middle" pointer-events="none" x="0" y="5" font-size="10px" fill="#2A2C34" font-family="sans-serif"> Caltech</text></g><g class="node" transform="translate(-494.5991890596477,460.61715008326496)"><circle class="outline" cx="0" cy="0" r="25" fill="#ECB5C9" stroke="#da7298" stroke-width="2px"/><text text-anchor="middle" pointer-events="none" font-family="sans-serif" dy="1.5625" font-size="25" fill="#2A2C34"/><text text-anchor="middle" pointer-events="none" font-family="sans-serif" dy="1.5625" font-size="25" fill="#2A2C34"/><text text-anchor="middle" pointer-events="none" x="0" y="0" font-size="10px" fill="#2A2C34" font-family="sans-serif"> Project</text><text text-anchor="middle" pointer-events="none" x="0" y="10" font-size="10px" fill="#2A2C34" font-family="sans-serif"> MAC</text></g><g class="node" transform="translate(-418.3702187778962,537.2445035927236)"><circle class="outline" cx="0" cy="0" r="25" fill="#D9C8AE" stroke="#c0a378" stroke-width="2px"/><text text-anchor="middle" pointer-events="none" font-family="sans-serif" dy="1.5625" font-size="25" fill="#2A2C34"/><text text-anchor="middle" pointer-events="none" x="0" y="5" font-size="10px" fill="#2A2C34" font-family="sans-serif"> MIT</text></g><g class="node" transform="translate(-185.54241743829047,133.09552948434902)"><circle class="outline" cx="0" cy="0" r="25" fill="#D9C8AE" stroke="#c0a378" stroke-width="2px"/><text text-anchor="middle" pointer-events="none" font-family="sans-serif" dy="1.5625" font-size="25" fill="#2A2C34"/><text text-anchor="middle" pointer-events="none" x="0" y="5" font-size="10px" fill="#2A2C34" font-family="sans-serif"> Associat…</text></g><g class="node" transform="translate(-120.58719626279596,-89.2910635513798)"><circle class="outline" cx="0" cy="0" r="25" fill="#C990C0" stroke="#b261a5" stroke-width="2px"/><text text-anchor="middle" pointer-events="none" font-family="sans-serif" dy="1.5625" font-size="25" fill="#FFFFFF"/><text text-anchor="middle" pointer-events="none" font-family="sans-serif" dy="1.5625" font-size="25" fill="#FFFFFF"/><text text-anchor="middle" pointer-events="none" font-family="sans-serif" dy="1.5625" font-size="25" fill="#FFFFFF"/><text text-anchor="middle" pointer-events="none" x="0" y="-5" font-size="10px" fill="#FFFFFF" font-family="sans-serif"> John</text><text text-anchor="middle" pointer-events="none" x="0" y="5" font-size="10px" fill="#FFFFFF" font-family="sans-serif"> Patrick</text><text text-anchor="middle" pointer-events="none" x="0" y="15" font-size="10px" fill="#FFFFFF" font-family="sans-serif"> McCar…</text></g><g class="node" transform="translate(39.58445408601953,655.4915467358993)"><circle class="outline" cx="0" cy="0" r="25" fill="#F16667" stroke="#eb2728" stroke-width="2px"/><text text-anchor="middle" pointer-events="none" font-family="sans-serif" dy="1.5625" font-size="25" fill="#FFFFFF"/><text text-anchor="middle" pointer-events="none" x="0" y="5" font-size="10px" fill="#FFFFFF" font-family="sans-serif"> 1978</text></g><g class="node" transform="translate(-245.67962801378786,-16.534211617740215)"><circle class="outline" cx="0" cy="0" r="25" fill="#8DCC93" stroke="#5db665" stroke-width="2px"/><text text-anchor="middle" pointer-events="none" font-family="sans-serif" dy="1.5625" font-size="25" fill="#2A2C34"/><text text-anchor="middle" pointer-events="none" x="0" y="5" font-size="10px" fill="#2A2C34" font-family="sans-serif"> Stanford</text></g><g class="node" transform="translate(-243.42618544264798,-76.46168889865355)"><circle class="outline" cx="0" cy="0" r="25" fill="#D9C8AE" stroke="#c0a378" stroke-width="2px"/><text text-anchor="middle" pointer-events="none" font-family="sans-serif" dy="1.5625" font-size="25" fill="#2A2C34"/><text text-anchor="middle" pointer-events="none" x="0" y="5" font-size="10px" fill="#2A2C34" font-family="sans-serif"> US Army</text></g><g class="node" transform="translate(-174.23710454391218,640.1240245087328)"><circle class="outline" cx="0" cy="0" r="25" fill="#F79767" stroke="#f36924" stroke-width="2px"/><text text-anchor="middle" pointer-events="none" font-family="sans-serif" dy="1.5625" font-size="25" fill="#FFFFFF"/><text text-anchor="middle" pointer-events="none" x="0" y="5" font-size="10px" fill="#FFFFFF" font-family="sans-serif"> mountai…</text></g><g class="node" transform="translate(-159.72501240679347,-134.7505978539944)"><circle class="outline" cx="0" cy="0" r="25" fill="#8DCC93" stroke="#5db665" stroke-width="2px"/><text text-anchor="middle" pointer-events="none" font-family="sans-serif" dy="1.5625" font-size="25" fill="#2A2C34"/><text text-anchor="middle" pointer-events="none" x="0" y="5" font-size="10px" fill="#2A2C34" font-family="sans-serif"> Boston</text></g><g class="node" transform="translate(-203.7454710923627,190.2184886127835)"><circle class="outline" cx="0" cy="0" r="25" fill="#F79767" stroke="#f36924" stroke-width="2px"/><text text-anchor="middle" pointer-events="none" font-family="sans-serif" dy="1.5625" font-size="25" fill="#FFFFFF"/><text text-anchor="middle" pointer-events="none" x="0" y="5" font-size="10px" fill="#FFFFFF" font-family="sans-serif"> atheist</text></g><g class="node" transform="translate(-237.94745185596784,47.26448120965593)"><circle class="outline" cx="0" cy="0" r="25" fill="#8DCC93" stroke="#5db665" stroke-width="2px"/><text text-anchor="middle" pointer-events="none" font-family="sans-serif" dy="1.5625" font-size="25" fill="#2A2C34"/><text text-anchor="middle" pointer-events="none" x="0" y="5" font-size="10px" fill="#2A2C34" font-family="sans-serif"> Lithuani…</text></g><g class="node" transform="translate(-65.4128478692007,634.7447287205955)"><circle class="outline" cx="0" cy="0" r="25" fill="#C990C0" stroke="#b261a5" stroke-width="2px"/><text text-anchor="middle" pointer-events="none" font-family="sans-serif" dy="1.5625" font-size="25" fill="#FFFFFF"/><text text-anchor="middle" pointer-events="none" font-family="sans-serif" dy="1.5625" font-size="25" fill="#FFFFFF"/><text text-anchor="middle" pointer-events="none" x="0" y="0" font-size="10px" fill="#FFFFFF" font-family="sans-serif"> Vera</text><text text-anchor="middle" pointer-events="none" x="0" y="10" font-size="10px" fill="#FFFFFF" font-family="sans-serif"> Watson</text></g></g></svg>